<?xml version="1.0" encoding="utf-8"?>
<!-- Generator: Adobe Illustrator 24.3.0, SVG Export Plug-In . SVG Version: 6.00 Build 0)  -->
<svg version="1.1" id="Layer_1" xmlns="http://www.w3.org/2000/svg" xmlns:xlink="http://www.w3.org/1999/xlink" x="0px" y="0px"
	 viewBox="0 0 500 500" style="enable-background:new 0 0 500 500;" xml:space="preserve">
<style type="text/css">
	.st0{fill:#4D4D4D;}
	.st1{fill:#FFFFFF;}
</style>
<g>
	<g>
		<path class="st0" d="M344.32,128.89l-9.59-48.63c-0.72-3.66-4.27-6.04-7.93-5.32c-3.66,0.72-6.04,4.27-5.32,7.93l6.92,35.07
			c-22.76-13.64-49.62-21.56-78.4-21.56c-27.27,0-54.29,7.12-78.4,21.56l16.53-83.82c0.13-0.66,0.72-1.14,1.39-1.14h120.95
			c0.68,0,1.26,0.48,1.39,1.14l3.52,17.83c0.72,3.66,4.27,6.04,7.93,5.32c3.66-0.72,6.04-4.27,5.32-7.93l-3.52-17.83
			c-1.38-6.97-7.53-12.04-14.64-12.04H189.53c-7.11,0-13.27,5.06-14.65,12.04l-19.22,97.47c-35.74,28.05-58.74,71.62-58.74,120.47
			c0,22.86,4.92,44.86,14.62,65.37c1.59,3.37,5.62,4.81,8.99,3.22c3.37-1.59,4.81-5.62,3.22-8.99c-8.84-18.7-13.33-38.75-13.33-59.6
			c0-77.07,62.72-139.57,139.57-139.57c78.2,0,139.57,63.87,139.57,139.57c0,77.12-62.78,139.57-139.57,139.57
			c-43.77,0-84.15-20.13-110.58-54.4c-2.28-2.95-6.52-3.5-9.47-1.22c-2.95,2.28-3.5,6.52-1.22,9.47
			c7.89,10.23,16.87,19.26,26.72,27.03l19.44,98.58c1.38,6.98,7.54,12.04,14.65,12.04h120.95c7.11,0,13.27-5.06,14.64-12.04
			l19.47-98.76c35.59-28.05,58.48-71.54,58.48-120.27C403.08,201.75,381.08,157.68,344.32,128.89L344.32,128.89z M311.87,465.87
			c-0.13,0.66-0.72,1.14-1.39,1.14H189.53c-0.68,0-1.26-0.48-1.39-1.14l-16.75-84.95c24.05,14.42,51.28,21.62,78.62,21.62
			c27.11,0,54.28-7.05,78.64-21.71L311.87,465.87z"/>
		<path class="st1" d="M310.48,481.32H189.53c-7.49,0-13.98-5.33-15.43-12.68l-19.39-98.29c-9.9-7.84-18.85-16.92-26.62-26.98
			c-2.54-3.3-1.93-8.05,1.37-10.59c3.3-2.54,8.05-1.93,10.59,1.36c26.52,34.38,66.59,54.09,109.95,54.09
			c76.52,0,138.77-62.25,138.77-138.77S326.52,110.68,250,110.68s-138.77,62.25-138.77,138.77c0,20.73,4.46,40.67,13.25,59.25
			c0.86,1.82,0.96,3.87,0.28,5.77c-0.68,1.9-2.06,3.42-3.88,4.28c-1.82,0.86-3.88,0.96-5.77,0.28c-1.9-0.68-3.42-2.06-4.28-3.88
			c-9.75-20.62-14.7-42.73-14.7-65.71c0-47.41,21.43-91.47,58.81-120.92l19.17-97.18c1.45-7.35,7.94-12.68,15.43-12.68h120.95
			c7.49,0,13.98,5.33,15.43,12.68l3.51,17.83c0.39,1.98-0.01,3.99-1.14,5.67c-1.12,1.68-2.83,2.81-4.81,3.2
			c-4.08,0.8-8.06-1.86-8.87-5.95l-3.51-17.83c-0.06-0.29-0.31-0.5-0.61-0.5H189.53c-0.3,0-0.55,0.21-0.61,0.5l-16.18,82.07
			c23.31-13.59,49.99-20.77,77.27-20.77c27.29,0,53.97,7.18,77.27,20.77l-6.57-33.32c-0.81-4.08,1.86-8.06,5.95-8.87
			c4.09-0.8,8.06,1.86,8.87,5.95l9.53,48.34c37.39,29.39,58.83,73.48,58.83,121.01c0,47.29-21.34,91.27-58.55,120.71l-19.42,98.47
			C324.45,475.99,317.96,481.32,310.48,481.32z M134.07,332.8c-1.27,0-2.55,0.4-3.63,1.24c-2.6,2.01-3.08,5.75-1.08,8.35
			c7.75,10.04,16.69,19.09,26.58,26.89l0.23,0.18l0.06,0.29l19.44,98.58c1.3,6.6,7.13,11.39,13.86,11.39h120.95
			c6.73,0,12.56-4.79,13.86-11.39l19.53-99.05l0.23-0.18c36.97-29.14,58.18-72.75,58.18-119.64c0-47.14-21.3-90.86-58.45-119.94
			l-0.23-0.18l-9.65-48.92c-0.64-3.22-3.77-5.33-7-4.69c-1.56,0.31-2.91,1.21-3.8,2.53c-0.89,1.32-1.21,2.91-0.9,4.47l7.26,36.83
			l-1.54-0.92C304.57,104.59,277.6,97.17,250,97.17c-27.6,0-54.57,7.42-77.99,21.45l-1.54,0.92l16.88-85.58
			c0.2-1.04,1.12-1.79,2.18-1.79h120.95c1.05,0,1.97,0.75,2.17,1.79l3.51,17.83c0.64,3.22,3.77,5.32,7,4.69
			c1.56-0.31,2.91-1.21,3.8-2.53c0.89-1.32,1.21-2.91,0.9-4.47l-3.51-17.83c-1.3-6.6-7.13-11.39-13.86-11.39H189.53
			c-6.73,0-12.56,4.79-13.86,11.39l-19.28,97.76l-0.23,0.18c-37.14,29.14-58.43,72.82-58.43,119.84c0,22.74,4.89,44.62,14.55,65.03
			c0.68,1.44,1.88,2.53,3.38,3.06c1.5,0.54,3.12,0.46,4.55-0.22c1.44-0.68,2.53-1.88,3.06-3.38s0.46-3.11-0.22-4.55
			c-8.89-18.8-13.4-38.97-13.4-59.94c0-77.4,62.97-140.37,140.37-140.37s140.37,62.97,140.37,140.37S327.4,389.82,250,389.82
			c-43.86,0-84.39-19.94-111.21-54.71C137.62,333.6,135.85,332.8,134.07,332.8z M310.48,467.81H189.53c-1.06,0-1.97-0.75-2.18-1.79
			l-17.1-86.71l1.54,0.92c23.46,14.07,50.5,21.5,78.21,21.5c27.7,0,54.75-7.47,78.23-21.6l1.54-0.93l-17.12,86.81
			C312.44,467.06,311.53,467.81,310.48,467.81z M172.51,382.51l16.41,83.21c0.06,0.29,0.31,0.5,0.61,0.5h120.95
			c0.3,0,0.55-0.21,0.61-0.5l16.43-83.3c-23.37,13.69-50.13,20.91-77.51,20.91C222.61,403.33,195.85,396.14,172.51,382.51z"/>
	</g>
	<g>
		<path class="st0" d="M250,256.75h37.23c3.73,0,6.75-3.02,6.75-6.75s-3.02-6.75-6.75-6.75h-30.48v-47.37
			c0-3.73-3.02-6.75-6.75-6.75c-3.73,0-6.75,3.02-6.75,6.75v53.58c0,0.09,0.01,0.18,0.01,0.27c0,0.09-0.01,0.18-0.01,0.27
			C243.25,253.73,246.27,256.75,250,256.75z"/>
		<path class="st1" d="M287.23,257.55H250c-4.16,0-7.55-3.39-7.55-7.55v-54.12c0-4.16,3.39-7.55,7.55-7.55s7.55,3.39,7.55,7.55
			v46.57h29.68c4.16,0,7.55,3.39,7.55,7.55C294.78,254.16,291.4,257.55,287.23,257.55z M250,189.92c-3.28,0-5.96,2.67-5.96,5.96
			l0.01,53.88l-0.81,0.24h0.8c0,3.28,2.67,5.96,5.96,5.96h37.23c3.28,0,5.96-2.67,5.96-5.96s-2.67-5.96-5.96-5.96h-31.28v-48.17
			C255.96,192.59,253.28,189.92,250,189.92z"/>
	</g>
	<g>
		<path class="st0" d="M250,370.75c66.81,0,121.29-54.37,121.29-121.29c0-66.72-54.2-121.29-121.29-121.29
			c-66.81,0-121.29,54.37-121.29,121.29C128.71,316.28,183.09,370.75,250,370.75z M158.89,242.7h-16.45
			c1.53-24.64,11.38-47.07,26.77-64.5l3.32,3.32c2.64,2.64,6.91,2.64,9.55,0c2.64-2.64,2.64-6.91,0-9.55l-3.32-3.32
			c17.43-15.39,39.85-25.23,64.5-26.77v16.45c0,3.73,3.02,6.75,6.75,6.75c3.73,0,6.75-3.02,6.75-6.75v-16.45
			c24.64,1.53,47.07,11.38,64.5,26.77l-3.32,3.32c-2.64,2.64-2.64,6.91,0,9.55c2.64,2.64,6.91,2.64,9.55,0l3.32-3.32
			c15.39,17.43,25.23,39.85,26.77,64.5h-16.45c-3.73,0-6.75,3.02-6.75,6.75c0,3.73,3.02,6.75,6.75,6.75h16.45
			c-1.53,24.64-11.38,47.07-26.77,64.5l-3.32-3.32c-2.64-2.64-6.91-2.64-9.55,0c-2.64,2.64-2.64,6.91,0,9.55l3.32,3.32
			c-17.43,15.39-39.85,25.23-64.5,26.77v-16.45c0-3.73-3.02-6.75-6.75-6.75c-3.73,0-6.75,3.02-6.75,6.75v16.45
			c-24.64-1.53-47.07-11.38-64.5-26.77l3.32-3.32c2.64-2.64,2.64-6.91,0-9.55c-2.64-2.64-6.91-2.64-9.55,0l-3.32,3.32
			c-15.39-17.43-25.23-39.85-26.77-64.5h16.45c3.73,0,6.75-3.02,6.75-6.75C165.64,245.73,162.62,242.7,158.89,242.7z"/>
		<path class="st1" d="M250,371.55c-67.32,0-122.09-54.77-122.09-122.09S182.68,127.36,250,127.36s122.09,54.77,122.09,122.09
			S317.32,371.55,250,371.55z M250,128.96c-66.44,0-120.5,54.05-120.5,120.5s54.05,120.5,120.5,120.5s120.5-54.05,120.5-120.5
			S316.44,128.96,250,128.96z M255.96,357.87v-17.3c0-3.28-2.67-5.96-5.96-5.96s-5.96,2.67-5.96,5.96v17.3l-0.85-0.05
			c-24.23-1.51-46.7-10.83-64.98-26.96l-0.64-0.56l3.92-3.92c2.32-2.32,2.32-6.1,0-8.42c-2.32-2.32-6.1-2.32-8.42,0l-3.92,3.92
			l-0.56-0.64c-16.13-18.27-25.46-40.74-26.96-64.98l-0.05-0.85h17.3c3.28,0,5.96-2.67,5.96-5.96s-2.67-5.96-5.96-5.96h-17.3
			l0.05-0.85c1.51-24.23,10.83-46.7,26.96-64.97l0.56-0.64l3.92,3.92c2.25,2.25,6.17,2.25,8.42,0c1.13-1.13,1.74-2.62,1.74-4.21
			c0-1.59-0.62-3.09-1.74-4.21l-3.92-3.92l0.64-0.56c18.28-16.13,40.74-25.46,64.98-26.96l0.85-0.05v17.3
			c0,3.28,2.67,5.96,5.96,5.96s5.96-2.67,5.96-5.96v-17.3l0.85,0.05c24.23,1.51,46.7,10.83,64.98,26.96l0.64,0.56l-3.92,3.92
			c-2.32,2.32-2.32,6.1,0,8.42c1.12,1.12,2.62,1.74,4.21,1.74l0,0c1.59,0,3.09-0.62,4.21-1.74l3.92-3.92l0.56,0.64
			c16.13,18.27,25.46,40.74,26.96,64.97l0.05,0.85h-17.3c-3.28,0-5.96,2.67-5.96,5.96s2.67,5.96,5.96,5.96h17.3l-0.05,0.85
			c-1.51,24.23-10.83,46.7-26.96,64.98l-0.56,0.64l-3.92-3.92c-2.32-2.32-6.1-2.33-8.42,0c-1.13,1.13-1.74,2.62-1.74,4.21
			c0,1.59,0.62,3.09,1.74,4.21l3.92,3.92l-0.64,0.56c-18.27,16.13-40.74,25.46-64.97,26.96L255.96,357.87z M179.92,330.22
			c17.68,15.37,39.26,24.33,62.53,25.95v-15.6c0-4.16,3.39-7.55,7.55-7.55s7.55,3.39,7.55,7.55v15.6
			c23.27-1.63,44.86-10.58,62.53-25.95l-2.71-2.71c-1.43-1.42-2.21-3.32-2.21-5.34c0-2.02,0.78-3.91,2.21-5.34
			c2.95-2.94,7.74-2.94,10.68,0l2.71,2.71c15.37-17.68,24.33-39.26,25.95-62.53h-15.6c-4.16,0-7.55-3.39-7.55-7.55
			s3.39-7.55,7.55-7.55h15.6c-1.63-23.27-10.59-44.86-25.95-62.53l-2.71,2.71c-1.42,1.43-3.32,2.21-5.34,2.21c0,0,0,0,0,0
			c-2.02,0-3.91-0.78-5.34-2.21c-2.94-2.94-2.94-7.74,0-10.68l2.71-2.71c-17.68-15.37-39.26-24.33-62.53-25.95v15.6
			c0,4.16-3.39,7.55-7.55,7.55s-7.55-3.39-7.55-7.55v-15.6c-23.27,1.63-44.86,10.58-62.53,25.95l2.71,2.71
			c1.43,1.42,2.21,3.32,2.21,5.34c0,2.02-0.78,3.91-2.21,5.34c-2.85,2.85-7.83,2.85-10.68,0l-2.72-2.71
			c-15.37,17.67-24.33,39.26-25.95,62.53h15.6c4.16,0,7.55,3.39,7.55,7.55s-3.39,7.55-7.55,7.55h-15.6
			c1.63,23.27,10.58,44.86,25.95,62.53l2.72-2.71c2.94-2.94,7.73-2.94,10.68,0c2.94,2.94,2.94,7.73,0,10.68L179.92,330.22z"/>
	</g>
</g>
</svg>
