<svg id="Capa_1" enable-background="new 0 0 512 512" height="512" viewBox="0 0 512 512" width="512" xmlns="http://www.w3.org/2000/svg"><g><path d="m476.933 143.941 19.425-7.261c3.738-1.397 6.153-4.879 6.153-8.87s-2.415-7.473-6.153-8.87l-26.817-10.025-10.025-26.817c-1.397-3.738-4.879-6.153-8.87-6.153s-7.473 2.415-8.87 6.153l-6.011 16.081c-22.07-18.873-47.572-33.952-75.966-44.864-32.751-12.588-67.674-18.97-103.799-18.97-42.281 0-84.188 9.113-121.191 26.355-3.754 1.749-5.38 6.211-3.63 9.966 1.749 3.754 6.212 5.381 9.966 3.63 35.032-16.323 74.748-24.951 114.855-24.951 34.278 0 67.391 6.046 98.418 17.97 27.308 10.496 51.753 25.05 72.796 43.295l-22.282 8.33c-3.738 1.397-6.153 4.879-6.153 8.87s2.415 7.473 6.153 8.87l26.818 10.024 10.024 26.818c1.397 3.738 4.879 6.153 8.87 6.153s7.473-2.415 8.87-6.153l6.866-18.367c20.068 30.714 30.62 65.34 30.62 100.845 0 28.8-6.782 56.668-20.157 82.83-6.395 12.508-14.14 24.34-23.17 35.415 2.959-10.355 4.473-20.959 4.473-31.619 0-41.142-21.803-79.659-61.393-108.458-38.87-28.275-90.426-43.848-145.171-43.848-28.249 0-55.6 4.12-81.324 12.23l-13.117-4.903-10.025-26.817c-1.397-3.739-4.879-6.154-8.87-6.154s-7.474 2.416-8.87 6.154l-10.025 26.817-26.821 10.025c-3.736 1.399-6.15 4.882-6.149 8.872.001 3.989 2.416 7.47 6.153 8.867l17.178 6.422c-41.283 28.696-64.691 68.469-64.691 110.792 0 4.909.312 9.79.935 14.631-20.146-30.739-30.956-65.666-30.956-101.256 0-33.267 9.443-66.327 27.31-95.608 17.376-28.479 42.685-53.475 73.19-72.285 3.525-2.174 4.621-6.795 2.447-10.32-2.174-3.526-6.796-4.623-10.32-2.447-32.507 20.044-59.521 46.753-78.123 77.239-19.302 31.635-29.504 67.398-29.504 103.421 0 55.53 24.594 107.837 63.699 146.331.007.007.015.012.022.019 48.676 47.929 118.37 75.304 192.279 75.304 39.374 0 77.146-7.533 112.264-22.392 3.815-1.614 5.6-6.015 3.985-9.829-1.614-3.816-6.02-5.601-9.829-3.985-33.26 14.071-69.064 21.206-106.42 21.206-71.671 0-139.03-27.068-185.023-74.29-7.266-14.671-10.958-30.053-10.958-45.738 0-25.222 9.648-49.556 27.394-70.666 16.396 22.724 40.33 42.011 69.804 56.136 33.487 16.049 72.428 24.532 112.61 24.532 63.019 0 122.57-21.281 161.589-57.327 7.584 14.76 11.729 30.702 11.729 47.325 0 22.237-7.639 44.309-22.079 63.896-9.971 8.043-20.838 15.427-32.328 21.945-3.603 2.044-4.866 6.622-2.822 10.225 1.381 2.434 3.919 3.8 6.53 3.8 1.254 0 2.525-.314 3.694-.978 12.495-7.09 24.314-15.146 35.13-23.944.003-.002.006-.004.008-.006 25.173-20.479 44.996-44.672 58.919-71.905 14.468-28.296 21.803-58.461 21.803-89.659 0-39.616-12.099-78.166-35.067-112.059zm-20.56-4.85-5.728 15.321-5.729-15.327c-.961-2.564-2.982-4.586-5.553-5.549l-15.321-5.727 15.316-5.726c2.568-.958 4.595-2.981 5.56-5.557l5.727-15.32 5.726 15.315c.96 2.574 2.987 4.602 5.557 5.56l15.32 5.728-15.326 5.729c-2.569.963-4.593 2.99-5.549 5.553zm-329.404 71.723c2.569-.963 4.593-2.989 5.549-5.553l5.728-15.321 5.726 15.316c.958 2.569 2.981 4.595 5.556 5.56l15.321 5.727-15.327 5.729c-2.568.963-4.592 2.988-5.548 5.553l-5.728 15.321-5.726-15.316c-.958-2.568-2.981-4.595-5.557-5.56l-15.32-5.728zm142.858 126.814c-73.069 0-139.737-29.986-171.937-76.842 7.054-6.786 15.017-13.147 23.838-18.987l7.647 20.455c1.396 3.739 4.879 6.155 8.87 6.155s7.474-2.416 8.87-6.154l10.025-26.817 26.817-10.025c5.259-1.967 7.462-7.803 5.376-12.646 19.945-4.938 40.811-7.445 62.248-7.445 75.355 0 140.676 31.352 171.935 76.809-36.185 34.84-93.102 55.497-153.689 55.497z"/><path d="m363.029 373.474c-6.694 2.805-11.178 8.951-15.513 14.896-3.34 4.579-7.126 9.77-10.482 10.645-2.975.77-8.586-1.769-13.542-4.012-6.631-3.003-14.146-6.396-21.765-5.456-7.312.91-13.311 5.733-19.112 10.397-4.385 3.525-9.354 7.521-12.788 7.521-5.107 0-11.218-4.254-17.127-8.368-6.528-4.546-13.28-9.247-21.053-10.416-8.205-1.244-16.306 1.298-24.139 3.75-6.629 2.074-13.481 4.212-17.844 2.821-4.96-1.588-9.46-7.653-13.812-13.519-4.636-6.248-9.43-12.708-16.181-16.303-3.657-1.944-8.198-.559-10.145 3.096-1.946 3.656-.561 8.198 3.096 10.145 3.768 2.006 7.37 6.861 11.184 12.001 5.498 7.409 11.729 15.807 21.286 18.865 8.882 2.845 18.039-.02 26.895-2.791 6.214-1.942 12.64-3.949 17.428-3.233 4.309.648 9.363 4.168 14.715 7.894 7.444 5.184 15.883 11.059 25.697 11.059 8.716 0 15.873-5.754 22.188-10.831 4.17-3.353 8.481-6.819 11.567-7.203 3.417-.432 8.66 1.942 13.723 4.235 7.22 3.271 15.407 6.975 23.511 4.863 8.539-2.225 14.001-9.714 18.82-16.321 3.124-4.283 6.354-8.712 9.19-9.9 3.82-1.601 5.619-5.995 4.019-9.815-1.601-3.821-5.993-5.624-9.816-4.02z"/><path d="m223.933 158.975h64.135c4.223 0 8.256-1.578 11.356-4.441l25.679-23.717c3.42-3.158 5.381-7.641 5.381-12.296s-1.961-9.138-5.381-12.296l-25.678-23.716c-3.102-2.864-7.135-4.442-11.357-4.442h-64.135c-4.221 0-8.254 1.577-11.356 4.441l-25.677 23.716c-3.421 3.159-5.383 7.641-5.383 12.297s1.962 9.138 5.382 12.296l25.679 23.718c3.101 2.863 7.134 4.44 11.355 4.44zm65.313-65.447 25.679 23.717c.462.426.559.93.559 1.276s-.097.851-.559 1.276l-25.68 23.718c-.32.297-.739.46-1.178.46h-8.089l8.133-20.669c1.214-3.086 1.214-6.484 0-9.57l-8.133-20.669h8.089c.439 0 .858.163 1.179.461zm-25.387-.461 10.015 25.454-10.015 25.454h-15.718l-10.015-25.454 10.015-25.454zm-67.342 25.454c0-.347.097-.85.56-1.276l25.677-23.716c.322-.298.741-.462 1.18-.462h8.09l-8.133 20.669c-1.214 3.086-1.214 6.484 0 9.57l8.133 20.669h-8.09c-.438 0-.857-.164-1.179-.461l-25.679-23.718c-.463-.425-.559-.928-.559-1.275z"/><path d="m127.671 152.478c1.163 0 2.343-.271 3.446-.844l21.16-10.972c3.678-1.906 5.112-6.434 3.206-10.11-1.907-3.678-6.434-5.113-10.11-3.206l-21.16 10.972c-3.678 1.906-5.112 6.434-3.206 10.11 1.335 2.574 3.952 4.05 6.664 4.05z"/><path d="m380.884 151.634c1.104.572 2.283.844 3.446.844 2.711 0 5.33-1.476 6.664-4.05 1.906-3.677.472-8.204-3.206-10.11l-21.16-10.972c-3.675-1.905-8.204-.474-10.11 3.206-1.906 3.677-.472 8.204 3.206 10.11z"/><path d="m256 132.961c4.143 0 7.5-3.357 7.5-7.5v-13.881c0-4.143-3.357-7.5-7.5-7.5s-7.5 3.357-7.5 7.5v13.881c0 4.143 3.357 7.5 7.5 7.5z"/></g></svg>