<?xml version="1.0" encoding="utf-8"?>
<!-- Generator: Adobe Illustrator 24.3.0, SVG Export Plug-In . SVG Version: 6.00 Build 0)  -->
<svg version="1.1" id="Layer_1" xmlns="http://www.w3.org/2000/svg" xmlns:xlink="http://www.w3.org/1999/xlink" x="0px" y="0px"
	 viewBox="0 0 500 500" style="enable-background:new 0 0 500 500;" xml:space="preserve">
<style type="text/css">
	.st0{fill:#c1c1c1;}
	.st1{fill:#000000;}
</style>
<g>
	<g>
		<path class="st0" d="M246.53,48.5c0-1.84-0.73-3.61-2.04-4.91c-1.3-1.31-3.07-2.04-4.91-2.04H86.72c-1.84,0-3.61,0.73-4.91,2.04
			c-1.31,1.3-2.04,3.07-2.04,4.91v41.69c0,0.08,0.01,0.39,0.01,0.47l19.96,292.77c0.63,8.61,6.5,15.94,14.77,18.44v49.63
			c0,1.84,0.73,3.61,2.04,4.91c1.3,1.31,3.07,2.04,4.91,2.04h83.38c1.84,0,3.61-0.73,4.91-2.04c1.31-1.3,2.04-3.07,2.04-4.91v-49.63
			c8.26-2.49,14.13-9.83,14.77-18.43l19.96-292.77c0.01-0.08,0.01-0.39,0.01-0.47V48.5z M93.66,55.45h138.97v27.79H93.66V55.45z
			 M197.89,444.55h-69.48v-41.69h13.9v20.84c0,1.84,0.73,3.61,2.04,4.91c1.3,1.31,3.07,2.04,4.91,2.04h27.79
			c1.84,0,3.61-0.73,4.91-2.04c1.31-1.3,2.04-3.07,2.04-4.91v-20.84h13.9V444.55z M156.2,402.86h13.9v13.9h-13.9V402.86z
			 M212.68,382.49c-0.26,3.64-3.28,6.46-6.93,6.47h-85.21c-3.65-0.01-6.67-2.84-6.93-6.48L94.15,97.14h137.99L212.68,382.49z"/>
		<path class="st1" d="M204.84,459.25h-83.38c-2.07,0-4.02-0.81-5.48-2.27c-1.46-1.46-2.27-3.4-2.27-5.48v-49.05
			c-8.23-2.74-14.13-10.29-14.76-18.97L78.99,90.72c-0.01-0.08-0.02-0.44-0.02-0.53V48.5c0-2.07,0.81-4.01,2.27-5.48
			c1.44-1.44,3.43-2.27,5.48-2.27h152.86c2.07,0,4.02,0.81,5.48,2.27c1.46,1.45,2.27,3.4,2.27,5.47v41.69
			c0,0.09-0.01,0.45-0.02,0.54l-19.96,292.77c-0.63,8.68-6.54,16.23-14.76,18.96v49.05c0,2.07-0.81,4.02-2.27,5.48
			C208.88,458.42,206.88,459.25,204.84,459.25z M86.72,42.35c-1.62,0-3.2,0.66-4.35,1.8c-1.16,1.16-1.8,2.71-1.8,4.35v41.69
			c0,0.07,0.01,0.34,0.01,0.41l19.96,292.77c0.6,8.22,6.31,15.35,14.2,17.73l0.57,0.17v50.22c0,1.65,0.64,3.19,1.8,4.35
			c1.16,1.16,2.71,1.8,4.35,1.8h83.38c1.62,0,3.21-0.66,4.35-1.8c1.16-1.16,1.8-2.7,1.8-4.35v-50.22l0.57-0.17
			c7.89-2.38,13.6-9.51,14.2-17.73l19.96-292.77c0-0.08,0.01-0.35,0.01-0.42V48.5c0-1.65-0.64-3.19-1.8-4.35
			c-1.16-1.16-2.7-1.8-4.35-1.8H86.72z M198.69,445.35h-71.08v-43.28h15.49v21.64c0,1.64,0.64,3.19,1.8,4.35
			c1.14,1.15,2.73,1.8,4.35,1.8h27.79c1.62,0,3.21-0.66,4.35-1.8c1.16-1.16,1.8-2.71,1.8-4.35v-21.64h15.49V445.35z M129.2,443.76
			h67.89v-40.1h-12.3v20.05c0,2.07-0.81,4.02-2.27,5.48c-1.44,1.44-3.43,2.27-5.48,2.27h-27.79c-2.04,0-4.04-0.83-5.48-2.27
			c-1.46-1.46-2.27-3.41-2.27-5.48v-20.05h-12.3V443.76z M170.89,417.56H155.4v-15.49h15.49V417.56z M157,415.96h12.3v-12.3H157
			V415.96z M205.76,389.76h-85.21c-4.05-0.01-7.44-3.18-7.72-7.22L93.3,96.34h139.69l-0.06,0.85l-19.46,285.36
			C213.19,386.58,209.8,389.75,205.76,389.76z M95.01,97.94l19.4,284.5c0.23,3.21,2.92,5.73,6.14,5.74h85.21
			c3.21-0.01,5.9-2.53,6.13-5.73l19.4-284.5H95.01z M233.43,84.04H92.87V54.65h140.56V84.04z M94.46,82.44h137.37v-26.2H94.46V82.44
			z"/>
	</g>
	<g>
		<path class="st0" d="M350.75,124.93c1.84,0,3.61-0.73,4.91-2.04c1.31-1.3,2.04-3.07,2.04-4.91V97.14h55.59
			c1.84,0,3.61-0.73,4.91-2.04c1.31-1.3,2.04-3.07,2.04-4.91c-0.02-19.18-15.56-34.72-34.74-34.74H274.32
			c-1.84,0-3.61,0.73-4.91,2.04c-1.31,1.3-2.04,3.07-2.04,4.91v27.79c0,1.84,0.73,3.61,2.04,4.91c1.3,1.31,3.07,2.04,4.91,2.04h13.9
			v20.84c0,1.84,0.73,3.61,2.04,4.91c1.3,1.31,3.07,2.04,4.91,2.04h6.95v13.9h-6.95c-19.18,0.02-34.72,15.56-34.74,34.74V451.5
			c0,1.84,0.73,3.61,2.04,4.91c1.3,1.31,3.07,2.04,4.91,2.04h111.17c1.84,0,3.61-0.73,4.91-2.04c1.31-1.3,2.04-3.07,2.04-4.91
			V173.57c-0.02-19.18-15.56-34.72-34.74-34.74h-6.95v-13.9H350.75z M281.27,69.34h104.22c8.83,0.01,16.7,5.57,19.66,13.9H281.27
			V69.34z M343.8,97.14v13.9h-41.69v-13.9H343.8z M371.6,375.07h-69.48V236.1h69.48V375.07z M371.6,173.57v48.64h-76.43
			c-1.84,0-3.61,0.73-4.91,2.04c-1.31,1.3-2.04,3.07-2.04,4.91v152.86c0,1.84,0.73,3.61,2.04,4.91c1.3,1.31,3.07,2.04,4.91,2.04
			h76.43v55.59h-97.28V173.57c0.01-11.51,9.34-20.83,20.84-20.84h55.59C362.26,152.74,371.58,162.06,371.6,173.57z M329.91,138.83
			h-13.9v-13.9h13.9V138.83z"/>
		<path class="st1" d="M378.54,459.25H267.37c-2.07,0-4.02-0.81-5.48-2.27c-1.46-1.46-2.27-3.4-2.27-5.48V173.57
			c0.02-19.57,15.97-35.52,35.54-35.54h6.15v-12.3h-6.15c-2.04,0-4.04-0.83-5.48-2.27c-1.46-1.46-2.27-3.41-2.27-5.48V97.94h-13.1
			c-2.07,0-4.01-0.81-5.48-2.27c-1.46-1.46-2.27-3.41-2.27-5.48V62.4c0-2.07,0.81-4.02,2.27-5.48c1.46-1.46,3.41-2.27,5.48-2.27
			h111.17c19.57,0.02,35.52,15.97,35.54,35.54c0,2.07-0.81,4.02-2.27,5.48c-1.44,1.44-3.44,2.27-5.48,2.27H358.5v20.05
			c0,2.07-0.81,4.02-2.27,5.48c-1.46,1.46-3.4,2.27-5.48,2.27h-6.15v12.3h6.15c19.57,0.02,35.52,15.97,35.54,35.54V451.5
			c0,2.07-0.81,4.02-2.27,5.48C382.56,458.44,380.62,459.25,378.54,459.25z M295.16,139.63c-18.69,0.02-33.92,15.25-33.94,33.95
			V451.5c0,1.65,0.64,3.19,1.8,4.35c1.16,1.16,2.71,1.8,4.35,1.8h111.17c1.64,0,3.19-0.64,4.35-1.8c1.16-1.16,1.8-2.7,1.8-4.35
			V173.57c-0.02-18.69-15.25-33.92-33.95-33.94h-7.74v-15.49h7.74c1.65,0,3.19-0.64,4.35-1.8c1.16-1.16,1.8-2.71,1.8-4.35V96.34
			h56.39c1.62,0,3.2-0.66,4.35-1.8c1.16-1.16,1.8-2.71,1.8-4.35c-0.02-18.69-15.25-33.92-33.94-33.94H274.32
			c-1.64,0-3.19,0.64-4.35,1.8c-1.16,1.16-1.8,2.71-1.8,4.35v27.79c0,1.64,0.64,3.19,1.8,4.35c1.16,1.16,2.71,1.8,4.35,1.8h14.69
			v21.64c0,1.64,0.64,3.19,1.8,4.35c1.14,1.14,2.73,1.8,4.35,1.8h7.75v15.49H295.16z M372.39,445.35h-98.87V173.57
			c0.01-11.92,9.72-21.63,21.64-21.64h55.59c11.92,0.01,21.63,9.72,21.64,21.64V223h-77.23c-1.62,0-3.2,0.66-4.35,1.8
			c-1.16,1.16-1.8,2.71-1.8,4.35v152.86c0,1.64,0.64,3.19,1.8,4.35c1.14,1.15,2.73,1.8,4.35,1.8h77.23V445.35z M275.12,443.76h95.68
			v-53.99h-75.63c-2.04,0-4.04-0.83-5.48-2.27c-1.46-1.46-2.27-3.4-2.27-5.47V229.16c0-2.07,0.81-4.01,2.27-5.48
			c1.44-1.44,3.44-2.27,5.48-2.27h75.63v-47.84c-0.01-11.04-9.01-20.03-20.05-20.05h-55.59c-11.04,0.01-20.03,9.01-20.05,20.05
			V443.76z M372.39,375.87h-71.08V235.31h71.08V375.87z M302.91,374.27h67.89V236.9h-67.89V374.27z M330.7,139.63h-15.49v-15.49
			h15.49V139.63z M316.81,138.03h12.3v-12.3h-12.3V138.03z M344.6,111.83h-43.29V96.34h43.29V111.83z M302.91,110.24h40.1v-12.3
			h-40.1V110.24z M406.28,84.04H280.47V68.55h105.02c9.15,0.01,17.35,5.81,20.41,14.43L406.28,84.04z M282.06,82.44h121.92
			c-3.11-7.39-10.4-12.29-18.49-12.3H282.06V82.44z"/>
	</g>
	<g>
		<path class="st0" d="M128.41,312.54h69.48c1.84,0,3.61-0.73,4.91-2.04c1.31-1.3,2.04-3.07,2.04-4.91V180.52
			c0-1.84-0.73-3.61-2.04-4.91c-1.3-1.31-3.07-2.04-4.91-2.04h-69.48c-1.84,0-3.61,0.73-4.91,2.04c-1.31,1.3-2.04,3.07-2.04,4.91
			v125.07c0,1.84,0.73,3.61,2.04,4.91C124.8,311.81,126.56,312.54,128.41,312.54z M135.35,187.47h55.59v111.17h-55.59V187.47z"/>
		<path class="st1" d="M197.89,313.33h-69.48c-2.07,0-4.02-0.81-5.48-2.27c-1.46-1.46-2.27-3.4-2.27-5.48V180.52
			c0-2.07,0.81-4.02,2.27-5.48c1.46-1.46,3.41-2.27,5.48-2.27h69.48c2.04,0,4.04,0.83,5.48,2.27c1.46,1.46,2.27,3.4,2.27,5.47
			v125.07c0,2.07-0.81,4.01-2.27,5.48C201.93,312.5,199.93,313.33,197.89,313.33z M128.41,174.37c-1.64,0-3.19,0.64-4.35,1.8
			c-1.16,1.16-1.8,2.7-1.8,4.35v125.07c0,1.65,0.64,3.19,1.8,4.35c1.16,1.16,2.71,1.8,4.35,1.8h69.48c1.62,0,3.2-0.66,4.35-1.8
			c1.16-1.16,1.8-2.71,1.8-4.35V180.52c0-1.64-0.64-3.19-1.8-4.35c-1.14-1.15-2.73-1.8-4.35-1.8H128.41z M191.74,299.44h-57.18
			V186.67h57.18V299.44z M136.15,297.84h53.99V188.26h-53.99V297.84z"/>
	</g>
</g>
</svg>
