<?xml version="1.0" encoding="utf-8"?>
<!-- Generator: Adobe Illustrator 24.3.0, SVG Export Plug-In . SVG Version: 6.00 Build 0)  -->
<svg version="1.1" id="Layer_1" xmlns="http://www.w3.org/2000/svg" xmlns:xlink="http://www.w3.org/1999/xlink" x="0px" y="0px"
	 viewBox="0 0 500 500" style="enable-background:new 0 0 500 500;" xml:space="preserve">
<style type="text/css">
	.st0{fill:#4D4D4D;}
	.st1{fill:#FFFFFF;}
</style>
<g>
	<g>
		<g>
			<g>
				<path class="st0" d="M484.05,293.85c-0.3-16.22-8.26-31.48-21.46-40.97c-3.11-2.24-7.46-1.53-9.7,1.58s-1.53,7.46,1.58,9.7
					c9.06,6.52,14.75,16.76,15.59,27.8c-8.34,3.07-15.45,9-19.99,16.61c-54.87,17.58-106.33,23.1-153.17,16.48l-39.71-8.61
					c-1.01-0.28-2.02-0.54-3.02-0.83c-2.68-0.76-5.17-1.5-7.54-2.23l-35.9-12.14c-3.3-1.06-6.84-2.16-10.75-3.29
					c-0.34-0.1-0.69-0.19-1.03-0.29l-39.13-9.02c-6.77-1.15-13.59-2.1-20.33-2.81c-1.56-0.16-3.13-0.31-4.7-0.45v-3.38
					c0-19.83-16.14-35.96-35.97-35.96H54.37v-1.01c0-11.78,1.57-23.52,4.66-34.89l7.84-28.79c0.39-1.42,1.48-1.86,2.09-2
					c0.62-0.14,1.79-0.21,2.75,0.91l5.77,6.69c2.51,2.91,6.89,3.23,9.8,0.72c2.9-2.51,3.23-6.89,0.72-9.8l-5.77-6.69
					c-4.04-4.69-10.3-6.75-16.35-5.38c-6.04,1.37-10.8,5.93-12.42,11.9l-7.84,28.79c-3.42,12.56-5.15,25.53-5.15,38.54v45.38
					c-2.63,1.57-4.83,3.86-6.27,6.64l-20.43,39.32c0,0,0,0,0,0.01l-0.05,0.1c-0.02,0.04-0.03,0.07-0.05,0.11
					c-0.09,0.19-0.18,0.37-0.25,0.57c-0.03,0.07-0.05,0.13-0.07,0.2c-0.06,0.18-0.12,0.36-0.17,0.55c-0.02,0.07-0.04,0.14-0.06,0.21
					c-0.04,0.19-0.08,0.38-0.11,0.58c-0.01,0.07-0.02,0.13-0.03,0.2c-2.56,22.66,20.02,42.04,41.22,42.04H159
					c3.48,0,6.87-1.42,9.29-3.91c2.09-2.13,3.32-4.85,3.55-7.75l10.6,1.84c3.78,0.66,7.38-1.87,8.04-5.65
					c0.66-3.78-1.87-7.38-5.65-8.04l-11.52-2.01c-3.82-0.74-7.72,0.26-10.71,2.76c-2.68,2.24-4.31,5.41-4.58,8.85h-23.82
					c-3.32-19.45-20.29-34.31-40.67-34.31h-62.2l15.21-29.28c0.3-0.58,0.8-1.03,1.38-1.29c0.62-0.04,1.21-0.17,1.77-0.36
					c20.9-3.12,42.14-4.41,63.15-3.82c8.5,0.24,16.97,0.8,25.19,1.67c7.52,0.8,15.16,1.89,22.65,3.24c12.08,2.27,24,5.1,35.43,8.41
					c18.28,5.29,35.94,12.46,54.25,17.67c9.9,2.82,19.93,5.28,29.89,7.35c0.02,0,0.04,0.01,0.06,0.01c0.01,0,0.03,0.01,0.04,0.01
					c49.24,9.69,103.37,6.1,161.13-10.63l-12.27,24.92l-50.11,14.85c-3.48,1.03-7.09,1.56-10.72,1.56H357.7l-76.6-24.61
					c-10.16-3.26-21.19-0.64-28.8,6.84l-17.21,16.92l-21.37-3.72c-3.78-0.66-7.38,1.87-8.04,5.65c-0.66,3.78,1.87,7.38,5.65,8.04
					l24.89,4.33c1.7,0.3,3.43,0.44,5.15,0.44h115.2c0.02,0,0.03,0,0.05,0h11.73c4.97,0,9.91-0.72,14.67-2.13L436,363.1
					c0.04-0.01,0.09-0.03,0.13-0.04l23.58-6.99c16.2-4.8,27.51-19.95,27.51-36.84v-17.66C487.22,298.67,486.05,295.9,484.05,293.85z
					 M93.52,346.62c12.69,0,23.39,8.68,26.48,20.41H54.2c-12.69,0-23.39-8.68-26.48-20.41H93.52z M120.89,284.4
					c-22.19-1.11-44.49-0.16-66.52,2.72v-27.18h44.44c12.17,0,22.08,9.9,22.08,22.06C120.89,281.99,120.89,284.4,120.89,284.4z
					 M254.05,367.04l8-7.87c3.91-3.85,9.58-5.19,14.81-3.51l35.42,11.38L254.05,367.04L254.05,367.04z M473.32,319.24
					c0,10.78-7.22,20.45-17.56,23.52l-8.42,2.5l13.71-27.85c2.58-5.23,6.97-9.43,12.27-11.8V319.24z"/>
				<path class="st1" d="M159,381.98H54.21c-11.71,0-24.21-5.85-32.62-15.27c-7.34-8.21-10.76-18.14-9.66-27.95
					c0.07-0.45,0.1-0.67,0.16-0.89c0.12-0.46,0.18-0.67,0.26-0.88l0.1-0.26c0.08-0.21,0.18-0.42,0.28-0.64l0.13-0.22l-0.01-0.01
					l20.43-39.32c1.42-2.74,3.54-5.06,6.16-6.74v-44.79c0-13.12,1.74-26.18,5.19-38.82l7.83-28.78c1.73-6.35,6.79-11.2,13.21-12.65
					c6.42-1.46,13.07,0.73,17.38,5.72l5.77,6.69c2.88,3.34,2.51,8.4-0.83,11.28c-3.34,2.88-8.4,2.51-11.29-0.83l-5.77-6.69
					c-0.46-0.53-1.05-0.71-1.72-0.57c-0.68,0.16-1.12,0.58-1.31,1.25l-7.83,28.79c-3.07,11.27-4.62,22.9-4.63,34.57h43.39
					c20.42,0,37.03,16.6,37.03,37.01v2.42c1.26,0.11,2.51,0.23,3.76,0.36c6.61,0.7,13.47,1.65,20.39,2.82l40.28,9.34
					c3.93,1.14,7.48,2.23,10.78,3.3l35.92,12.14c2.33,0.71,4.81,1.45,7.49,2.21l3.01,0.83l39.65,8.59
					c46.47,6.57,97.73,1.08,152.25-16.34c4.55-7.45,11.46-13.25,19.57-16.43c-1.02-10.53-6.49-20.06-15.08-26.24
					c-3.58-2.58-4.4-7.59-1.82-11.17c1.25-1.73,3.1-2.88,5.21-3.22c2.11-0.34,4.23,0.15,5.96,1.4c13.3,9.57,21.46,25.02,21.89,41.4
					c2.05,2.25,3.18,5.13,3.18,8.16v17.66c0,17.35-11.62,32.91-28.26,37.85l-76.67,22.72c-4.86,1.44-9.9,2.17-14.97,2.17H241.39
					c-1.78,0-3.58-0.15-5.34-0.46l-24.89-4.33c-4.35-0.76-7.26-4.91-6.51-9.26c0.36-2.11,1.53-3.94,3.28-5.17
					c1.75-1.23,3.88-1.71,5.97-1.34l20.83,3.63l16.82-16.54c7.88-7.76,19.33-10.47,29.86-7.09l76.44,24.56h10.5
					c3.53,0,7.04-0.51,10.42-1.51l49.67-14.72l11.01-22.37c-57.06,16.21-110.65,19.57-159.33,10c-10.07-2.09-20.15-4.57-30.07-7.39
					c-9.38-2.67-18.74-5.9-27.78-9.03c-8.63-2.98-17.55-6.07-26.47-8.65c-11.38-3.3-23.27-6.12-35.33-8.39
					c-7.47-1.35-15.07-2.43-22.57-3.23c-8.2-0.87-16.65-1.42-25.11-1.66c-20.89-0.59-42.09,0.7-62.97,3.81
					c-0.42,0.16-1.02,0.29-1.65,0.35c-0.31,0.17-0.57,0.43-0.73,0.74l-14.42,27.74h60.46c20.4,0,37.73,14.38,41.55,34.31h22
					c0.5-3.37,2.19-6.4,4.84-8.61c3.23-2.7,7.45-3.78,11.58-2.99l11.5,2c2.11,0.37,3.94,1.53,5.17,3.28s1.7,3.87,1.34,5.98
					c-0.75,4.34-4.91,7.25-9.26,6.51l-9.5-1.65c-0.44,2.73-1.71,5.22-3.71,7.26C166.42,380.45,162.76,381.98,159,381.98z
					 M14.83,336.62l-0.12,0.24c-0.17,0.35-0.24,0.51-0.31,0.67c-0.11,0.32-0.16,0.47-0.21,0.63c-0.08,0.34-0.11,0.5-0.13,0.67
					c-1.07,9.37,2.18,18.72,9.11,26.48c8.02,8.98,19.92,14.56,31.04,14.56H159c3.2,0,6.31-1.31,8.54-3.59
					c1.92-1.96,3.04-4.42,3.25-7.1l0.09-1.16l11.74,2.04c3.18,0.56,6.26-1.6,6.82-4.79c0.27-1.55-0.08-3.11-0.98-4.4
					c-0.91-1.29-2.26-2.15-3.81-2.42l-11.52-2.01c-3.52-0.68-7.11,0.24-9.85,2.53c-2.46,2.06-3.95,4.94-4.2,8.13l-0.08,0.97H133.3
					l-0.15-0.88c-3.3-19.37-19.97-33.43-39.63-33.43H29.59l16.01-30.81c0.4-0.78,1.08-1.41,1.89-1.77l0.35-0.09
					c0.51-0.04,1.02-0.14,1.5-0.3c21.19-3.18,42.49-4.46,63.52-3.88c8.51,0.24,17.02,0.8,25.27,1.67c7.56,0.8,15.2,1.89,22.73,3.25
					c12.13,2.29,24.08,5.12,35.53,8.44c8.96,2.6,17.92,5.69,26.57,8.68c9.02,3.12,18.34,6.34,27.67,8.99
					c9.87,2.81,19.9,5.27,29.81,7.33c49.08,9.66,103.13,6.09,160.72-10.59l2.29-0.66l-13.53,27.47l-50.56,14.98
					c-3.58,1.06-7.29,1.6-11.02,1.6l-10.98-0.05l-76.6-24.61c-9.79-3.14-20.41-0.62-27.74,6.58l-17.59,17.3l-21.9-3.81
					c-1.55-0.27-3.11,0.08-4.4,0.98c-1.29,0.91-2.15,2.26-2.42,3.81c-0.56,3.2,1.59,6.26,4.79,6.82l24.89,4.33
					c1.64,0.29,3.31,0.43,4.97,0.43h126.98c4.87,0,9.71-0.7,14.37-2.08l76.67-22.72c15.75-4.67,26.76-19.4,26.76-35.83v-17.66
					c0-2.57-1.05-5.12-2.87-6.99l-0.29-0.3l-0.01-0.42c-0.29-15.87-8.15-30.88-21.02-40.14c-1.28-0.92-2.84-1.29-4.39-1.03
					c-1.56,0.25-2.92,1.1-3.83,2.37c-1.9,2.64-1.3,6.33,1.34,8.23c9.31,6.7,15.15,17.12,16.03,28.57l0.06,0.79l-0.75,0.28
					c-8.11,2.99-15.01,8.73-19.45,16.16l-0.21,0.34l-0.38,0.12c-54.97,17.61-106.66,23.17-153.64,16.52l-42.87-9.47
					c-2.69-0.76-5.19-1.51-7.56-2.23l-35.93-12.14c-3.28-1.06-6.81-2.15-10.71-3.28l-1.03-0.29l-39.08-9.01
					c-6.82-1.15-13.64-2.1-20.2-2.79c-1.55-0.16-3.12-0.3-4.69-0.45l-0.96-0.09v-4.34c0-19.25-15.67-34.91-34.92-34.91H53.32v-2.06
					c0-11.88,1.58-23.71,4.7-35.17l7.83-28.79c0.39-1.42,1.44-2.42,2.88-2.75c1.43-0.32,2.82,0.13,3.78,1.25l5.77,6.69
					c2.12,2.46,5.85,2.74,8.31,0.61c2.46-2.12,2.73-5.85,0.61-8.31l-5.77-6.69c-3.79-4.39-9.65-6.33-15.31-5.04
					c-5.66,1.29-10.12,5.56-11.64,11.15l-7.83,28.78c-3.4,12.46-5.12,25.34-5.12,38.27V291l-0.51,0.31
					c-2.51,1.5-4.55,3.65-5.88,6.22L14.83,336.62z M319,368.09h-67.52l9.84-9.67c4.19-4.12,10.27-5.56,15.86-3.76L319,368.09z
					 M256.62,365.98h48.93l-29.02-9.33c-4.85-1.56-10.11-0.31-13.75,3.26L256.62,365.98z M121.36,368.09H54.21
					c-12.91,0-24.22-8.72-27.5-21.2l-0.35-1.32h67.16c12.91,0,24.22,8.72,27.5,21.2L121.36,368.09z M29.13,347.67
					c3.46,10.85,13.58,18.31,25.08,18.31h64.39c-3.46-10.84-13.58-18.31-25.08-18.31H29.13z M445.33,346.95l14.78-30.01
					c2.68-5.44,7.22-9.81,12.79-12.29l1.48-0.66v15.26c0,11.24-7.53,21.33-18.32,24.52L445.33,346.95z M472.27,307.29
					c-4.44,2.36-8.06,6.07-10.28,10.58l-12.65,25.69l6.12-1.81c9.9-2.93,16.81-12.19,16.81-22.51V307.29z M53.32,288.31v-29.44h45.5
					c12.75,0,23.13,10.37,23.13,23.12v3.51l-1.11-0.05c-21.9-1.1-44.21-0.18-66.33,2.71L53.32,288.31z M55.43,260.98v24.93
					c21.49-2.74,43.15-3.62,64.41-2.63v-1.3c0-11.59-9.43-21.01-21.02-21.01H55.43z"/>
			</g>
		</g>
	</g>
	<g>
		<g>
			<g>
				<path class="st0" d="M411.82,242.87l-34.94-3.42c-13.96-1.36-27.85-3.52-41.6-6.42c-22.24-11.79-43.9-25.1-64.46-39.6l0.61-0.73
					c2.47-2.94,2.09-7.32-0.85-9.79c-2.94-2.47-7.32-2.09-9.79,0.85l-1.27,1.51c-4.48-3.32-8.92-6.7-13.31-10.15l0.78-0.93
					c2.47-2.94,2.09-7.32-0.85-9.79c-2.94-2.47-7.32-2.09-9.79,0.85l-0.97,1.16c-4.53-3.74-9.02-7.54-13.44-11.4l0.88-1.05
					c2.47-2.94,2.09-7.32-0.85-9.79c-2.94-2.47-7.32-2.09-9.79,0.85l-0.6,0.71c-7.74-7.1-15.3-14.4-22.64-21.88
					c-0.15-0.15-0.3-0.29-0.46-0.43c-7.4-6.3-18.42-5.67-25.07,1.43c-4.22,4.5-8.2,10.63-11.84,18.22
					c-8.27,17.25-8.51,32.99-7.99,40.49c-15.32,10-34.68,12.59-52.45,6.36c-3.62-1.27-7.59,0.64-8.85,4.26
					c-1.27,3.62,0.63,7.59,4.26,8.86c27.55,9.66,58.24,2.13,78.18-19.19c4.33-4.63,11.39-5.61,16.82-2.35l-7.4,8.81
					c-2.47,2.94-2.09,7.32,0.85,9.79c2.87,2.41,7.39,2.01,9.79-0.85l8.78-10.45l13.61,8.29c0.54,0.33,1.08,0.65,1.62,0.97
					l-4.72,5.62c-2.47,2.94-2.09,7.32,0.85,9.79c2.87,2.41,7.39,2.01,9.79-0.85l6.3-7.5c4.99,2.76,10.04,5.42,15.15,7.97l-3.13,3.73
					c-2.47,2.94-2.09,7.32,0.85,9.79c2.87,2.41,7.39,2.01,9.79-0.85l5.46-6.5c26.2,11.91,53.72,21.01,81.85,27.06
					c0.42,0.13,0.84,0.22,1.26,0.27c14.31,3.03,28.77,5.27,43.3,6.69l34.94,3.42c0.23,0.02,0.46,0.03,0.68,0.03
					c3.53,0,6.56-2.68,6.91-6.27C418.43,246.64,415.64,243.24,411.82,242.87z M190.59,170.73l-1.75-1.07
					c-9.8-5.96-22.24-5.06-31.09,1.82c0.69-6.31,2.42-14.16,6.37-22.41c3.02-6.31,6.2-11.26,9.45-14.73c1.52-1.63,4-1.83,5.74-0.5
					c7.57,7.7,15.36,15.22,23.34,22.53L190.59,170.73z M217.85,187.29c-1.15-0.68-2.31-1.37-3.45-2.07l-11.8-7.18l10.42-12.4
					c4.42,3.87,8.91,7.67,13.44,11.4L217.85,187.29z M245.36,202.14c-5.14-2.51-10.22-5.13-15.24-7.86l7.15-8.51
					c4.39,3.45,8.82,6.84,13.3,10.17L245.36,202.14z M258.41,208.21l3.44-4.1c6.56,4.65,13.24,9.18,20.01,13.58
					C273.94,214.78,266.12,211.62,258.41,208.21z"/>
				<path class="st1" d="M411.15,257.79c-0.26,0-0.52-0.01-0.78-0.04l-34.94-3.42c-14.44-1.41-29.04-3.67-43.41-6.71
					c-0.39-0.04-0.87-0.14-1.35-0.29c-27.83-5.98-55.19-14.99-81.25-26.78l-4.95,5.89c-2.8,3.32-7.96,3.77-11.27,0.98
					c-3.38-2.84-3.82-7.9-0.98-11.27l2.27-2.71c-4.43-2.23-8.87-4.57-13.23-6.97l-5.75,6.84c-2.79,3.32-7.95,3.77-11.27,0.98
					c-3.38-2.84-3.82-7.9-0.98-11.27l3.93-4.68l-13.41-8.16l-8.19,9.75c-2.8,3.32-7.96,3.76-11.27,0.98
					c-3.38-2.84-3.82-7.9-0.98-11.27l6.57-7.82c-4.83-2.27-10.71-1.2-14.4,2.75c-20.22,21.63-51.35,29.26-79.29,19.47
					c-2.02-0.71-3.64-2.16-4.56-4.08c-0.92-1.93-1.05-4.1-0.33-6.12c0.7-2.01,2.15-3.63,4.08-4.56c1.93-0.92,4.1-1.05,6.12-0.34
					c16.89,5.93,35.92,3.71,51.01-5.92c-0.48-8.06,0.03-23.5,8.13-40.4c3.68-7.69,7.72-13.91,12.02-18.49
					c7.04-7.52,18.69-8.18,26.53-1.52c0.18,0.15,0.36,0.32,0.53,0.49c6.99,7.12,14.32,14.22,21.79,21.1
					c2.86-3.26,7.83-3.65,11.16-0.85c3.38,2.84,3.82,7.9,0.98,11.27l-0.22,0.26c3.76,3.28,7.74,6.65,11.83,10.04l0.3-0.36
					c2.84-3.38,7.89-3.81,11.27-0.98c3.38,2.84,3.82,7.9,0.98,11.27l-0.09,0.1c3.73,2.92,7.64,5.9,11.64,8.87l0.63-0.75
					c1.37-1.64,3.3-2.64,5.43-2.82c2.11-0.18,4.2,0.47,5.84,1.84c3.33,2.8,3.8,7.75,1.1,11.12c20.24,14.22,41.52,27.27,63.28,38.81
					c13.69,2.88,27.6,5.03,41.34,6.37l34.94,3.42c4.39,0.43,7.61,4.35,7.19,8.74C418.71,254.68,415.29,257.79,411.15,257.79z
					 M248.83,217.98l0.73,0.33c26.14,11.88,53.61,20.96,81.64,26.99c0.44,0.13,0.8,0.21,1.15,0.25c14.4,3.04,28.93,5.29,43.28,6.69
					l34.94,3.42c3.28,0.3,6.13-2.07,6.44-5.29c0.31-3.23-2.06-6.12-5.29-6.44l-34.94-3.42c-13.87-1.36-27.91-3.52-41.72-6.44
					l-0.28-0.1c-22.21-11.77-43.94-25.12-64.57-39.67l-0.94-0.66l1.35-1.61c2.09-2.49,1.77-6.21-0.72-8.3
					c-1.21-1.01-2.75-1.5-4.3-1.36c-1.57,0.14-2.99,0.87-4,2.08l-1.91,2.27l-0.8-0.59c-4.59-3.41-9.08-6.83-13.33-10.17l-0.86-0.67
					l1.48-1.77c1.01-1.21,1.49-2.73,1.36-4.3c-0.14-1.57-0.88-2.99-2.08-4c-2.49-2.09-6.21-1.77-8.3,0.72l-1.64,1.96l-0.8-0.66
					c-4.68-3.86-9.21-7.7-13.46-11.43l-0.78-0.68l1.54-1.84c2.09-2.49,1.77-6.21-0.72-8.3c-2.49-2.09-6.21-1.76-8.31,0.72l-1.3,1.55
					l-0.81-0.74c-7.78-7.14-15.41-14.51-22.68-21.92c-0.13-0.13-0.25-0.25-0.38-0.36c-6.98-5.95-17.36-5.34-23.63,1.35
					c-4.14,4.42-8.07,10.46-11.66,17.96c-8.1,16.91-8.42,32.3-7.89,39.97l0.04,0.62l-0.52,0.34c-15.72,10.26-35.67,12.68-53.37,6.47
					c-1.49-0.53-3.09-0.43-4.51,0.25c-1.42,0.68-2.49,1.87-3.01,3.36c-0.52,1.49-0.43,3.09,0.25,4.51c0.68,1.42,1.87,2.49,3.36,3.01
					c27.16,9.53,57.41,2.1,77.06-18.92c4.65-4.98,12.28-6.04,18.13-2.53l1.06,0.64l-8.2,9.76c-2.09,2.49-1.77,6.21,0.72,8.3
					c2.4,2.02,6.28,1.68,8.3-0.72l9.36-11.14l17.06,10.37l-5.52,6.57c-2.09,2.49-1.77,6.21,0.72,8.3c2.41,2.02,6.28,1.68,8.3-0.72
					l6.86-8.16l0.76,0.42c4.97,2.75,10.05,5.43,15.1,7.95l1.2,0.6l-3.99,4.75c-2.09,2.49-1.77,6.21,0.72,8.3
					c2.4,2.02,6.29,1.68,8.31-0.72L248.83,217.98z M290.26,221.88l-8.76-3.21c-7.88-2.88-15.79-6.08-23.52-9.5l-1.28-0.57l4.97-5.92
					l0.79,0.56c6.5,4.61,13.22,9.17,19.97,13.55L290.26,221.88z M260.12,207.81c4.37,1.91,8.79,3.75,13.22,5.5
					c-3.81-2.56-7.59-5.17-11.3-7.79L260.12,207.81z M245.64,203.44l-0.74-0.36c-5.18-2.53-10.32-5.18-15.28-7.88l-1.13-0.62
					l8.63-10.28l0.8,0.63c4.34,3.41,8.8,6.83,13.27,10.15l0.9,0.67L245.64,203.44z M231.76,193.97c4.34,2.35,8.81,4.65,13.32,6.86
					l3.96-4.72c-3.91-2.92-7.81-5.9-11.62-8.89L231.76,193.97z M218.08,188.65l-0.77-0.46c-1.16-0.69-2.31-1.37-3.46-2.07L201,178.3
					l11.9-14.16l0.81,0.71c4.27,3.73,8.78,7.56,13.41,11.38l0.82,0.68L218.08,188.65z M204.19,177.78l10.75,6.55
					c0.89,0.54,1.78,1.07,2.67,1.6l7.35-8.75c-4.07-3.37-8.05-6.74-11.83-10.04L204.19,177.78z M156.43,173.84l0.27-2.47
					c0.87-7.95,3.04-15.6,6.47-22.75c3.07-6.41,6.31-11.45,9.63-14.99c1.89-2.02,4.97-2.28,7.15-0.62
					c7.61,7.74,15.45,15.3,23.42,22.59l0.75,0.68l-13.3,15.83l-2.52-1.54c-9.27-5.65-21.29-4.94-29.89,1.75L156.43,173.84z
					 M174.65,164.66c5.11,0,10.22,1.36,14.73,4.1l0.98,0.6l10.84-12.9c-7.74-7.1-15.35-14.46-22.64-21.88
					c-1.21-0.91-3.07-0.74-4.22,0.49c-3.17,3.38-6.29,8.25-9.26,14.46c-2.98,6.22-4.98,12.84-5.97,19.71
					C163.79,166.2,169.22,164.66,174.65,164.66z"/>
			</g>
		</g>
	</g>
</g>
</svg>
