<svg id="Capa_1" enable-background="new 0 0 512 512" height="512" viewBox="0 0 512 512" width="512" xmlns="http://www.w3.org/2000/svg"><g><path d="m281.053 311.716-36.05-31.671c-3.113-2.732-7.851-2.426-10.585.685-2.733 3.112-2.427 7.851.685 10.585l36.05 31.671c1.425 1.251 3.189 1.865 4.947 1.865 2.083 0 4.155-.862 5.638-2.55 2.733-3.113 2.426-7.851-.685-10.585z"/><path d="m245.826 317.436-22.017-19.343c-3.112-2.732-7.851-2.427-10.585.685-2.733 3.112-2.427 7.851.685 10.585l22.017 19.343c1.425 1.251 3.189 1.865 4.947 1.865 2.082 0 4.155-.862 5.638-2.55 2.733-3.112 2.427-7.85-.685-10.585z"/><path d="m512 315.758c0-7.662-2.172-15.102-6.28-21.513-19.661-30.687-66.116-51.827-119.907-76.307-.529-.241-1.063-.484-1.594-.726 1.965-2.704 1.945-6.488-.284-9.183-2.641-3.192-7.366-3.64-10.56-.999l-4.073 3.368c-3.682-1.692-7.381-3.404-11.092-5.137 2.528-2.715 2.718-6.945.291-9.881-2.641-3.191-7.366-3.64-10.56-.999l-4.614 3.816c-3.366-1.627-6.73-3.275-10.088-4.948l1.727-1.429c3.191-2.64 3.639-7.367.999-10.56-2.641-3.191-7.366-3.64-10.56-.999l-6.704 5.545c-3.7-1.947-7.381-3.927-11.031-5.947l2.114-1.749c3.191-2.64 3.639-7.367.999-10.56-2.641-3.191-7.365-3.641-10.56-.999l-6.445 5.331c-3.169-1.888-6.304-3.811-9.404-5.769 3.135-2.649 3.562-7.334.94-10.505-2.641-3.191-7.366-3.64-10.56-.999l-3.458 2.859c-3.215-2.229-6.373-4.504-9.47-6.827 3.146-2.647 3.577-7.34.951-10.516-2.641-3.191-7.369-3.64-10.56-.999l-2.407 1.991c-7.094-5.973-13.76-12.254-19.882-18.887-3.362-3.643-8.136-5.57-13.091-5.306-5.008.273-9.594 2.749-12.581 6.792-6.746 9.13-12.626 19.646-18.691 30.29-20.374 35.699-64.251 50.645-102.06 34.755-3.817-1.602-8.215.191-9.82 4.01-1.604 3.819.191 8.216 4.01 9.82 12.079 5.074 24.673 7.494 37.109 7.493 32.281-.003 63.449-16.325 81.501-44.863 37.203 34.525 86.321 58.508 137.604 81.948 1.011.462 2.07.681 3.113.681 2.846 0 5.566-1.628 6.826-4.384 1.722-3.768.063-8.218-3.703-9.939-51.277-23.437-100.268-47.365-136.096-81.622 4.026-6.954 8-13.494 12.271-19.275.438-.595 1.024-.711 1.334-.729.495-.021.919.142 1.25.502 5.964 6.462 12.394 12.581 19.176 18.414l-2.818 2.331c-3.191 2.64-3.639 7.367-.999 10.56 1.483 1.793 3.625 2.72 5.783 2.72 1.684 0 3.378-.563 4.776-1.721l5.126-4.24c3.063 2.355 6.182 4.661 9.354 6.919l-1.506 1.245c-3.191 2.64-3.639 7.367-.999 10.56 1.483 1.793 3.625 2.72 5.783 2.72 1.684 0 3.377-.563 4.776-1.721l4.87-4.027c3.157 2.048 6.354 4.056 9.582 6.028-1.792 2.684-1.705 6.328.458 8.943 1.483 1.793 3.625 2.72 5.783 2.72 1.684 0 3.377-.563 4.776-1.721l2.444-2.021c3.776 2.142 7.583 4.239 11.413 6.298-1.463 2.623-1.264 5.98.764 8.434 1.483 1.793 3.625 2.72 5.783 2.72 1.684 0 3.377-.563 4.776-1.721l2.601-2.151c3.34 1.698 6.689 3.368 10.041 5.016-2.88 2.686-3.209 7.18-.667 10.255 1.483 1.793 3.625 2.72 5.783 2.72 1.684 0 3.377-.563 4.776-1.721l4.957-4.1c3.669 1.736 7.33 3.448 10.979 5.139l-.063.052c-3.191 2.64-3.639 7.367-.999 10.56 1.483 1.793 3.625 2.72 5.783 2.72 1.684 0 3.377-.563 4.776-1.721l5.635-4.66c2.675 1.22 5.341 2.434 7.985 3.638 6.464 2.942 12.878 5.862 19.189 8.776l-2.892 3.305c-5.682 6.491-15.129 8.485-22.973 4.849-1.772-.822-3.56-1.646-5.354-2.473-3.762-1.733-8.217-.086-9.949 3.676-1.732 3.763-.087 8.217 3.676 9.949 1.782.82 3.556 1.639 5.316 2.455 4.625 2.145 9.565 3.18 14.47 3.18 9.779 0 19.414-4.116 26.101-11.757l5.741-6.56c36.062 17.187 66.859 34.578 80.167 55.346 2.558 3.992 3.909 8.633 3.909 13.421 0 7.967-3.76 15.067-9.594 19.635-4.531 3.549-9.956 5.298-15.338 5.298h-89.7l-122.574-88.125c-5.667-4.074-12.797-5.43-19.566-3.73l-51.603 12.988c-6.441 1.622-11.934 5.911-15.068 11.768s-3.657 12.805-1.434 19.064l17.062 48.035h-83.054l-2.063-79.612c-.116-4.484-1.736-8.873-4.562-12.357l-9.361-11.547c-3.45-4.255-8.352-6.907-13.799-7.468l-58.839-6.063c2.74-16.113 7.725-32.458 14.929-48.89.904-2.062 2.724-2.51 3.465-2.606.751-.099 2.646-.13 4.074 1.664l.787.978c2.9 3.573 6.101 6.983 9.513 10.138 3.041 2.811 7.786 2.626 10.599-.417 2.812-3.042 2.625-7.787-.417-10.599-2.889-2.67-5.597-5.556-8.047-8.574l-.707-.878c-4.29-5.389-10.922-8.072-17.741-7.186-6.801.887-12.507 5.171-15.264 11.458-.448 1.022-.865 2.043-1.298 3.064l-4.83-4.43c-3.052-2.798-7.798-2.594-10.597.458-2.8 3.053-2.595 7.797.458 10.597l9.167 8.406c-19.352 55.829-14.281 110.246 15.07 161.925l-5.563 13.757c-3.096 7.657-1.938 16.516 3.021 23.119 4.453 5.93 11.539 9.47 18.954 9.47h221.028c4.143 0 7.5-3.357 7.5-7.5s-3.357-7.5-7.5-7.5h-52.065l3.353-7.134c1.762-3.748.15-8.216-3.599-9.978-3.749-1.761-8.216-.149-9.978 3.599l-6.35 13.513h-23.724l3.353-7.134c1.762-3.748.15-8.216-3.599-9.978-3.749-1.761-8.215-.149-9.978 3.599l-6.35 13.513h-23.724l3.353-7.134c1.762-3.748.15-8.216-3.599-9.978-3.75-1.761-8.215-.149-9.978 3.599l-6.35 13.513h-23.717l3.353-7.134c1.762-3.748.15-8.216-3.599-9.978-3.748-1.761-8.216-.149-9.978 3.599l-6.35 13.513h-31.495c-2.723 0-5.324-1.3-6.96-3.478-1.821-2.425-2.246-5.678-1.109-8.489l5.03-12.439h159.741c.009 0 .017.002.025.002.015 0 .031-.002.046-.002h263.43c-1.283.754-24.664 24.406-64.225 24.406h-104.962c-4.143 0-7.5 3.357-7.5 7.5s3.357 7.5 7.5 7.5h104.964c26.217 0 51.707-9.29 71.776-26.159l26.341-22.14c.049-.042.092-.088.14-.13 8.956-7.329 14.683-18.463 14.683-30.91zm-325.742-28.124c-.824-2.32-.638-4.794.524-6.965s3.117-3.698 5.505-4.299l51.602-12.988c2.473-.622 5.078-.126 7.149 1.363l105.633 75.945h-151.568zm-146.939 53.056c-14.716-26.125-22.831-53.066-24.129-80.138-.349-7.272-.196-14.619.429-22.024l59.19 6.099c1.455.149 2.763.857 3.684 1.993l9.361 11.546c.755.931 1.188 2.103 1.219 3.3l.026.988h-17.801c-4.143 0-7.5 3.357-7.5 7.5s3.357 7.5 7.5 7.5h18.19l.23 8.893h-18.42c-4.143 0-7.5 3.357-7.5 7.5s3.357 7.5 7.5 7.5h18.809l.23 8.893h-19.04c-4.143 0-7.5 3.357-7.5 7.5s3.357 7.5 7.5 7.5h19.428l.4 15.45z"/></g></svg>