<?xml version="1.0" encoding="utf-8"?>
<!-- Generator: Adobe Illustrator 24.3.0, SVG Export Plug-In . SVG Version: 6.00 Build 0)  -->
<svg version="1.1" id="Layer_1" xmlns="http://www.w3.org/2000/svg" xmlns:xlink="http://www.w3.org/1999/xlink" x="0px" y="0px"
	 viewBox="0 0 500 500" style="enable-background:new 0 0 500 500;" xml:space="preserve">
<style type="text/css">
	.st0{fill:#c1c1c1;}
	.st1{fill:#000000;}
</style>
<g>
	<path class="st0" d="M249.19,243.15c-2.1,14.58-4.26,29.16-6.29,43.76c-8.52,61.47-17.01,122.93-25.47,184.41
		c-0.9,6.54-4.46,9.26-10.98,9.21c-19.75-0.14-39.51-0.02-59.26-0.06c-10.22-0.02-12.51-2.24-12.53-12.37
		c-0.06-36.22-0.06-72.44-0.07-108.66c0-71.03-0.54-142.07,0.38-213.09c0.25-19.35,4.79-38.65,7.49-57.96
		c2.73-19.55,5.83-39.05,8.35-58.63c0.93-7.19,4.14-10.28,11.42-10.27c58.56,0.11,117.12,0.09,175.68,0.02
		c6.32-0.01,10.16,2.11,11.13,8.93c5.34,37.7,10.93,75.36,16.27,113.06c0.55,3.91,0.02,7.98,0.02,11.97
		c0.03,104.2,0.06,208.39,0.08,312.59c0,13.03-1.42,14.43-14.67,14.43c-18.81,0.01-37.63,0.04-56.44-0.02
		c-8.6-0.03-10.66-2.11-11.82-10.48c-6.85-49.36-13.79-98.71-20.67-148.06c-3.44-24.68-6.82-49.36-10.23-74.04
		c-0.22-1.58-0.55-3.14-0.83-4.7C250.42,241.99,249.46,241.91,249.19,243.15z M154.88,119.06L154.88,119.06
		c3.56-3.99,9.72-9.28,13.49-13.06c5.04-5.06,9.88-5.57,13.41-1.51c4.16,4.78,2.33,9.05-1.62,12.98
		c-8.17,8.13-16.58,16.04-24.29,24.58c-2.51,2.78-4.45,7.23-4.46,10.92c-0.22,101.13-0.16,202.26-0.12,303.39
		c0,2.47,0.27,4.94,0.4,7.32c17.15,0,33.47,0,49.98,0c6.37-45.67,12.67-90.82,18.95-135.97c6.96-50.05,13.94-100.09,20.82-150.15
		c0.75-5.49,2.56-9.84,8.87-9.67c5.93,0.16,7.51,4.48,8.21,9.62c3.88,28.41,7.89,56.8,11.84,85.2
		c6.9,49.58,13.76,99.17,20.67,148.75c2.42,17.4,4.94,34.78,7.43,52.3c16.97,0,33.29,0,49.96,0c0.13-2.55,0.34-4.62,0.34-6.7
		c0-101.6,0.02-203.2-0.23-304.8c-0.01-3.47-1.99-7.63-4.38-10.27c-7.42-8.17-15.5-15.74-23.28-23.59
		c-5.5-5.55-6.33-10.14-2.65-13.99c3.92-4.1,8.53-3.29,14.51,2.54c3.59,3.5,7.21,6.96,10.82,10.44c-0.7-15.69-2.66-30.55-5.15-45.32
		c-0.23-1.35-3.82-2.98-5.89-3.04c-9.87-0.32-19.75-0.15-29.62-0.15c-6.47,0-12.94,0-20.19,0c0,10.08,0.33,18.99-0.07,27.86
		c-0.85,19.12-16.95,35.81-35.85,37.61c-10.31,0.98-13.3-1.64-13.34-11.99c-0.06-15.76-0.13-31.52,0.05-47.27
		c0.05-4.36-1-6.34-5.85-6.28c-20.22,0.24-40.45,0.06-60.67,0.3c-1.84,0.02-5.08,1.65-5.28,2.93
		C159.26,86.8,156.97,104.21,154.88,119.06z M250.36,51.83c28.79,0,56.77,0,85.03,0c-0.24-2.47-0.41-4.32-0.61-6.17
		c-1.06-9.89-1.06-9.9-10.71-9.9c-22.05,0-44.1,0-66.14,0c-2.48,0-4.96,0-7.57,0C250.36,41.71,250.36,46.57,250.36,51.83z
		 M232.82,52.09c0-5.69,0-10.68,0-16.33c-17.92,0-35.24,0-52.57,0c-14.23,0-14.23,0-15.4,14.1c-0.05,0.63,0.28,1.28,0.51,2.23
		C187.66,52.09,209.88,52.09,232.82,52.09z M250.47,116.37c8.76-3.62,13.79-9.41,15.22-17.75c0.94-5.48,0.82-11.17,0.87-16.77
		c0.11-14.29,0.03-14.29-14.47-12.64c-0.42,0.05-0.81,0.38-1.62,0.79C250.47,84.94,250.47,100.07,250.47,116.37z"/>
	<path class="st1" d="M206.62,482.12c-0.06,0-0.12,0-0.18,0c-12.28-0.09-24.56-0.08-36.84-0.06c-7.47,0.01-14.95,0.02-22.42,0
		c-11.07-0.02-14.1-3.02-14.12-13.96C133,431.87,133,395.65,133,359.43c0-19.12-0.04-38.23-0.08-57.35
		c-0.1-51.05-0.21-103.84,0.45-155.76c0.18-13.67,2.5-27.48,4.75-40.84c0.96-5.68,1.95-11.56,2.75-17.32
		c1.06-7.56,2.17-15.12,3.28-22.68c1.73-11.77,3.52-23.94,5.07-35.93c1.04-8.06,5.04-11.66,12.96-11.66c0.02,0,0.03,0,0.05,0
		c51.05,0.1,105.22,0.11,175.67,0.02c0.01,0,0.03,0,0.04,0c4.82,0,11.36,1.08,12.67,10.3c2.65,18.67,5.35,37.33,8.06,55.99
		c2.76,19.02,5.52,38.04,8.21,57.06c0.39,2.77,0.27,5.58,0.15,8.3c-0.06,1.3-0.11,2.6-0.11,3.89l0.08,312.59
		c0,13.92-2.12,16.02-16.26,16.02l-12.92,0.01c-14.51,0.01-29.02,0.02-43.53-0.03c-9.23-0.03-12.11-2.58-13.4-11.85
		c-4.11-29.6-8.25-59.2-12.39-88.79l-8.28-59.27c-2.08-14.91-4.13-29.82-6.19-44.73l-4.01-29.02l-1.24,8.54
		c-1.46,10.06-2.93,20.12-4.32,30.19c-8.52,61.46-17.01,122.93-25.46,184.41C218.04,478.66,213.98,482.12,206.62,482.12z
		 M182.66,478.86c7.94,0,15.87,0.02,23.81,0.07c5.97,0.01,8.62-2.23,9.39-7.83c8.45-61.47,16.94-122.94,25.46-184.41
		c1.4-10.08,2.86-20.15,4.32-30.21l1.99-13.67c0.34-1.55,1.38-2.13,2.24-2.15c1.11-0.03,2.05,0.79,2.42,2.09l0.31,1.63
		c0.21,1.09,0.41,2.18,0.56,3.28l4.05,29.32c2.05,14.91,4.11,29.82,6.19,44.72l8.28,59.27c4.14,29.6,8.28,59.19,12.39,88.79
		c1.07,7.72,2.61,9.08,10.25,9.1c14.51,0.05,29.01,0.04,43.52,0.03l12.92-0.01c12.34,0,13.08-0.72,13.07-12.84l-0.08-312.59
		c0-1.34,0.06-2.69,0.12-4.03c0.12-2.69,0.23-5.24-0.12-7.71c-2.69-19.02-5.45-38.04-8.21-57.05c-2.71-18.67-5.41-37.33-8.06-56
		c-0.78-5.51-3.36-7.56-9.52-7.56c-0.01,0-0.02,0-0.03,0c-70.45,0.09-124.63,0.08-175.68-0.02c-0.02,0-0.03,0-0.05,0
		c-6.3,0-8.96,2.41-9.79,8.88c-1.55,12.02-3.34,24.21-5.07,35.99c-1.11,7.55-2.22,15.1-3.28,22.66c-0.81,5.81-1.81,11.71-2.77,17.41
		c-2.23,13.24-4.53,26.92-4.71,40.35c-0.66,51.9-0.56,104.67-0.45,155.72c0.04,19.12,0.08,38.24,0.08,57.36
		c0,36.22,0,72.44,0.07,108.66c0.02,9.25,1.55,10.76,10.94,10.78c7.47,0.02,14.94,0.01,22.41,0
		C173.95,478.86,178.3,478.86,182.66,478.86z M250.76,243.42l0,0.02C250.76,243.43,250.76,243.42,250.76,243.42L250.76,243.42z
		 M349.95,465.34h-52.86l-2.5-17.52c-1.73-12.08-3.45-24.11-5.12-36.15c-4.15-29.81-8.29-59.62-12.43-89.43l-12.05-86.59
		c-2.7-19.31-5.4-38.62-8.04-57.93c-0.8-5.9-2.61-8.13-6.68-8.24c-4.45-0.13-6.4,2.13-7.25,8.3c-5.96,43.4-12,86.8-18.04,130.19
		l-21.92,157.31h-52.87l-0.09-1.5c-0.04-0.74-0.1-1.49-0.15-2.25c-0.12-1.7-0.25-3.44-0.25-5.17l-0.01-23.34
		c-0.04-91.79-0.07-186.7,0.13-280.05c0.01-3.96,1.97-8.78,4.87-11.99c5.78-6.4,12.03-12.54,18.08-18.47
		c2.09-2.06,4.19-4.11,6.27-6.18c4.11-4.09,4.57-7.32,1.54-10.8c-1.2-1.38-2.55-2.11-4.02-2.16c-2.08-0.07-4.55,1.22-7.06,3.75
		c-1.49,1.49-3.35,3.22-5.27,5.01c-2.97,2.76-6.04,5.62-8.16,7.99l-3.5,3.92l2.29-16.43c1.67-12.12,3.41-24.66,5.25-35.87
		c0.4-2.42,4.73-4.24,6.84-4.26c10.1-0.12,20.19-0.13,30.29-0.15c10.13-0.02,20.25-0.03,30.37-0.15c2.74,0.02,4.49,0.52,5.71,1.74
		c1.59,1.59,1.78,4.01,1.75,6.16c-0.18,15.36-0.11,30.99-0.05,46.11l0,1.14c0.02,4.85,0.72,7.64,2.27,9.05
		c1.55,1.41,4.44,1.83,9.33,1.37c18.17-1.73,33.6-17.91,34.41-36.09c0.27-5.99,0.2-12.02,0.13-18.41c-0.03-3.03-0.07-6.15-0.07-9.38
		v-1.59h21.78c2.58-0.02,5.15-0.01,7.73-0.02c7.19-0.03,14.63-0.06,21.95,0.18c2.31,0.07,6.99,1.84,7.42,4.37
		c2.9,17.26,4.55,31.72,5.17,45.51l0.18,4l-6.11-5.89c-2.54-2.44-5.07-4.88-7.59-7.34c-3.21-3.12-5.98-4.85-8.2-4.65
		c-1.42,0.02-2.74,0.7-4.05,2.06c-1.9,1.99-3.7,5.38,2.63,11.77c2.45,2.47,4.93,4.92,7.41,7.36c5.32,5.24,10.81,10.65,15.92,16.28
		c2.38,2.62,4.79,7.15,4.8,11.34c0.23,93.09,0.23,187.74,0.23,279.27v25.53c0,1.42-0.09,2.83-0.19,4.4L349.95,465.34z
		 M299.86,462.15h47.07c0.02-0.31,0.04-0.62,0.06-0.91c0.1-1.49,0.19-2.84,0.19-4.19v-25.53c0-91.53,0-186.17-0.23-279.26
		c-0.01-2.85-1.64-6.63-3.97-9.2c-5.05-5.56-10.51-10.95-15.8-16.16c-2.49-2.45-4.98-4.91-7.44-7.39
		c-7.64-7.71-5.67-13.07-2.68-16.22c1.89-1.98,4.01-3.01,6.3-3.05c3.2,0,6.59,1.76,10.48,5.55c2.52,2.45,5.05,4.89,7.58,7.33
		l0.32,0.31c-0.74-12.46-2.32-25.65-4.92-41.1c-0.31-0.45-2.78-1.66-4.37-1.72c-7.26-0.24-14.67-0.2-21.83-0.17
		c-2.58,0.01-5.18,0.01-7.74,0.02h-18.59c0.01,2.66,0.04,5.23,0.06,7.75c0.07,6.43,0.14,12.51-0.13,18.58
		c-0.88,19.7-17.61,37.25-37.29,39.12c-5.94,0.57-9.46-0.09-11.77-2.18c-2.3-2.09-3.29-5.49-3.31-11.4l0-1.14
		c-0.06-15.13-0.12-30.77,0.05-46.16c0.02-2.08-0.23-3.27-0.82-3.87c-0.56-0.56-1.64-0.84-3.42-0.8
		c-10.13,0.12-20.27,0.13-30.41,0.15c-10.09,0.02-20.17,0.03-30.26,0.15c-1.26,0.01-3.45,1.18-3.77,1.74
		c-1.79,11.02-3.52,23.54-5.19,35.64l-0.89,6.39c1.56-1.52,3.26-3.1,4.93-4.65c1.89-1.76,3.72-3.46,5.18-4.93
		c3.2-3.21,6.34-4.79,9.43-4.68c2.35,0.08,4.54,1.2,6.32,3.25c4.16,4.79,3.59,9.89-1.7,15.16c-2.08,2.07-4.18,4.13-6.28,6.19
		c-6.01,5.9-12.23,12-17.94,18.33c-2.34,2.59-4.04,6.74-4.05,9.86c-0.2,93.35-0.17,188.26-0.13,280.05l0.01,23.34
		c0,1.65,0.12,3.31,0.24,4.94c0.02,0.27,0.04,0.53,0.06,0.79h47.1l21.54-154.56c6.04-43.39,12.08-86.78,18.04-130.19
		c0.72-5.25,2.61-11.17,10.49-11.05c8.28,0.22,9.31,7.77,9.75,11c2.63,19.31,5.33,38.62,8.03,57.92l12.05,86.6
		c4.14,29.81,8.28,59.62,12.43,89.43c1.68,12.03,3.4,24.06,5.12,36.14L299.86,462.15z M248.88,118.75V69.01l0.88-0.44
		c0.26-0.13,0.47-0.25,0.66-0.36c0.44-0.26,0.9-0.52,1.5-0.59c7.76-0.88,11.66-1.33,14,0.78c2.33,2.09,2.3,5.89,2.25,13.46
		l-0.01,2.21c-0.02,4.88-0.04,9.93-0.88,14.82c-1.53,8.88-6.82,15.08-16.18,18.95L248.88,118.75z M252.07,70.94v42.95
		c6.9-3.44,10.85-8.55,12.06-15.54c0.8-4.63,0.81-9.54,0.83-14.3l0.01-2.22c0.04-5.98,0.07-9.93-1.19-11.06
		c-1.27-1.14-5.13-0.71-11.51,0.02C252.27,70.81,252.19,70.87,252.07,70.94z M234.42,53.68h-70.31l-0.29-1.22
		c-0.07-0.29-0.15-0.54-0.22-0.78c-0.19-0.61-0.38-1.23-0.33-1.95c1.24-14.98,1.87-15.56,16.99-15.56h54.16V53.68z M166.56,50.5
		h64.67V37.36h-50.97c-6.48,0-10.05,0-11.52,1.34c-1.47,1.34-1.76,4.87-2.29,11.29C166.44,50.07,166.5,50.28,166.56,50.5z
		 M337.15,53.43h-88.38V34.17h75.3c10.46,0,11.15,0.64,12.29,11.32c0.14,1.26,0.26,2.53,0.4,3.99L337.15,53.43z M251.96,50.24h81.68
		l-0.05-0.45c-0.14-1.45-0.26-2.7-0.39-3.96c-0.91-8.47-0.91-8.47-9.12-8.47h-72.11V50.24z"/>
</g>
</svg>
