<svg id="Capa_1" enable-background="new 0 0 512 512" height="512" viewBox="0 0 512 512" width="512" xmlns="http://www.w3.org/2000/svg"><g><path d="m265.4 26.656c0-4.143-3.357-7.5-7.5-7.5h-3.8c-4.143 0-7.5 3.357-7.5 7.5s3.357 7.5 7.5 7.5h3.801c4.142 0 7.499-3.357 7.499-7.5z"/><path d="m389.588 498.858c-3.688-28.313-6.556-56.563-8.522-83.967-.296-4.131-3.881-7.238-8.018-6.943-4.131.296-7.24 3.886-6.943 8.018 1.179 16.438 2.68 33.177 4.484 50.049h-51.081l-56.008-252.073v-67.45h7.304c11.818 0 21.433-9.614 21.433-21.432v-14.435c0-4.143-3.357-7.5-7.5-7.5s-7.5 3.357-7.5 7.5v14.435c0 3.547-2.886 6.432-6.433 6.432h-7.304v-78.18h13.736v27.326c0 4.143 3.357 7.5 7.5 7.5s7.5-3.357 7.5-7.5v-27.326h12.298v30.863c0 21.244 17.283 38.527 38.527 38.527h22.7c1.691 30.82.459 63.039-.937 99.454-1.773 46.242-3.782 98.654-.55 163.658.206 4.136 3.712 7.338 7.864 7.117 4.137-.205 7.323-3.726 7.118-7.863-3.201-64.343-1.205-116.404.557-162.337 2.581-67.321 4.615-120.581-11.005-177.901v-37.33c0-4.143-3.357-7.5-7.5-7.5h-161.745c-4.143 0-7.5 3.357-7.5 7.5s3.357 7.5 7.5 7.5h7.98l-2.565 23.312h-46.788v-23.312h11.385c4.143 0 7.5-3.357 7.5-7.5s-3.357-7.5-7.5-7.5h-18.885c-4.143 0-7.5 3.357-7.5 7.5v37.331c-15.617 57.317-13.583 110.566-10.999 177.875 2.655 69.205 5.961 155.335-9.78 276.151-.433 3.322.587 6.672 2.797 9.188 2.207 2.513 5.389 3.954 8.731 3.954h54.372c5.492 0 10.16-3.745 11.352-9.106 3.567-16.054 54.302-244.396 56.336-253.551 2.036 9.162 52.772 237.512 56.336 253.551 1.191 5.361 5.859 9.106 11.353 9.106h54.372c3.342 0 6.523-1.441 8.73-3.953 2.211-2.517 3.231-5.865 2.798-9.188zm-141.088-284.916-56.008 252.073h-51.083c11.13-104.084 8.188-180.933 5.771-243.884-1.397-36.405-2.63-68.615-.94-99.428h22.699c21.243 0 38.526-17.283 38.526-38.527v-30.864h41.034v160.63zm-78.61-106.263c-.316.013-.632.024-.95.024h-21.625c.723-8.096 1.685-16.127 2.938-24.143h19.637zm173.172.024c-12.973 0-23.527-10.555-23.527-23.527v-30.864h36.01c4.664 18.193 7.51 36.122 9.143 54.391zm10.747-69.391h-46.787l-2.565-23.312h49.351v23.312zm-131.175-23.312h66.732l2.565 23.312h-71.861zm-30.168 38.312v30.863c0 6.822-2.922 12.973-7.576 17.275v-19.036c0-7.639-6.215-13.854-13.854-13.854h-18.085c1.035-5.071 2.198-10.149 3.505-15.248zm-6.859 443.688h-47.831c.691-5.406 1.331-10.717 1.948-15.985h49.435zm140.786 0-3.552-15.985h49.435c.623 5.323 1.266 10.651 1.948 15.985z"/></g></svg>