<?xml version="1.0" encoding="utf-8"?>
<!-- Generator: Adobe Illustrator 24.3.0, SVG Export Plug-In . SVG Version: 6.00 Build 0)  -->
<svg version="1.1" id="Layer_1" xmlns="http://www.w3.org/2000/svg" xmlns:xlink="http://www.w3.org/1999/xlink" x="0px" y="0px"
	 viewBox="0 0 500 500" style="enable-background:new 0 0 500 500;" xml:space="preserve">
<style type="text/css">
	.st0{fill:#c1c1c1;}
	.st1{fill:#000000;}
</style>
<g>
	<g>
		<g>
			<path class="st0" d="M414.14,447.39c0-5.63,0-10.44,0-15.75c-3.04-0.27-6.34,0.37-8.39-0.95c-2.96-1.91-6.92-5.23-6.92-7.95
				c0-2.66,3.99-6.74,7-7.65c4.55-1.37,9.79-0.37,14.71-0.67c8.22-0.49,10.76-2.81,10.5-10.85c-1.61-49.38-2.87-98.77-5.32-148.11
				c-1.93-38.79-6.97-77.29-15.56-115.24c-1.19-5.27-2.76-10.46-3.92-15.74c-2.53-11.52-8.13-20.4-18.82-26.5
				c-9.72-5.56-18.54-12.68-28.22-19.44c-22.48,45.78-57.43,72.23-109.12,72.26c-51.66,0.03-86.77-26.13-109.51-72.29
				c-13.54,9.53-26.85,18.61-39.75,28.25c-2.31,1.72-3.57,5.58-4.22,8.69c-5.97,28.73-13.26,57.31-17.19,86.33
				c-9.03,66.8-10.63,134.12-10.68,201.45c-0.01,8.59,2.15,10.73,10.86,11.16c4.93,0.25,10.18-0.72,14.7,0.71
				c2.95,0.93,6.47,5.05,6.71,7.99c0.2,2.39-3.72,5.76-6.53,7.55c-2.47,1.57-8.19,0.96-8.57,2.35c-1.15,4.3-0.42,9.1-0.42,14.4
				c7.75,0,14.76-0.08,21.77,0.02c6.95,0.1,11.11,3.28,10.68,8.46c-0.55,6.58-5.12,8.33-10.96,8.29
				c-9.18-0.06-18.36,0.08-27.53-0.05c-7.73-0.11-10.54-3.01-10.76-10.71c-0.09-3.29-0.28-6.61,0.01-9.88
				c0.71-8.04-0.18-14.61-8.39-19.43c-6.05-3.55-8.03-10.77-8.02-17.98c0.07-73.46,1.48-146.9,12.47-219.67
				c3.99-26.4,11.08-52.33,16.95-78.44c1.78-7.91,6.68-13.45,13.5-18.1c24.68-16.83,49.08-34.08,73.44-51.37
				c4.33-3.07,7.95-3.53,12.95-1.38c45.6,19.66,91.34,19.63,136.91-0.12c4.76-2.06,8.25-1.6,12.34,1.28
				c25.37,17.91,50.97,35.49,76.19,53.59c3.94,2.83,7.46,7.34,9.26,11.84c10.24,25.49,14.77,52.43,18.63,79.45
				c10.31,72.16,12.2,144.82,12.77,217.56c0.09,12.01-2.9,21.7-13.97,27.94c-1.48,0.84-2.36,3.82-2.46,5.85
				c-0.31,6.57-0.11,13.17-0.15,19.76c-0.03,6.33-3.39,9.65-9.58,9.75c-10.11,0.17-20.24,0.16-30.35,0.04
				c-5.43-0.06-9.33-2.69-9.28-8.41c0.05-5.69,3.93-8.25,9.39-8.31C398.76,447.32,406.23,447.39,414.14,447.39z M170.6,57.63
				c-3.48,2.39-6.16,4.78-9.27,6.25c-6.69,3.16-6.07,7.06-3.04,12.86c21.41,41.06,56.6,61.27,102.84,56.93
				c39.48-3.71,65.87-26.23,82.25-61.44c0.61-1.31,0.45-4.08-0.46-4.82c-4.21-3.48-8.81-6.48-13.77-10.01
				c-13.72,36.37-37,59.25-76.38,60.38C210.51,119.01,185.14,95.82,170.6,57.63z M310.61,57.99c-40.85,13.87-80.7,13.74-120.85,0.19
				c5.17,22.97,30.29,42.06,55.34,43.12C276.1,102.6,301.4,86.43,310.61,57.99z"/>
			<path class="st1" d="M405.63,465.81c-4.62,0-9.41-0.03-14.45-0.09c-6.85-0.08-10.91-3.82-10.86-10.02
				c0.05-6.12,4.15-9.81,10.96-9.89c5.2-0.06,10.39-0.05,15.73-0.03l5.53,0.01v-12.63c-0.43-0.01-0.87,0-1.3,0
				c-2.23,0.01-4.56,0.03-6.36-1.13c-2.3-1.48-7.65-5.35-7.65-9.28c0-3.46,4.58-8.11,8.14-9.18c3.19-0.97,6.62-0.85,9.94-0.75
				c1.71,0.06,3.48,0.11,5.14,0.01c7.54-0.45,9.23-2.17,8.99-9.21c-0.37-11.25-0.72-22.51-1.06-33.76
				c-1.16-37.48-2.36-76.24-4.25-114.32c-1.96-39.41-7.18-78.09-15.52-114.97c-0.57-2.5-1.22-4.99-1.87-7.47
				c-0.72-2.75-1.44-5.5-2.05-8.27c-2.6-11.82-8.34-19.91-18.05-25.46c-6.79-3.88-13.01-8.42-19.59-13.22
				c-2.38-1.74-4.78-3.49-7.24-5.23c-23.85,47.4-60.76,71.45-109.72,71.48c-0.03,0-0.07,0-0.1,0c-49.76,0-85.76-23.4-110.01-71.52
				c-2.93,2.06-5.86,4.1-8.76,6.13c-10.2,7.12-19.83,13.85-29.43,21.02c-1.53,1.14-2.81,3.89-3.61,7.73
				c-1.68,8.09-3.46,16.16-5.25,24.24c-4.48,20.25-9.1,41.19-11.92,61.98c-9.28,68.7-10.61,137.32-10.67,201.24
				c-0.01,7.66,1.48,9.18,9.34,9.57c1.62,0.08,3.27,0.02,4.91-0.03c3.41-0.11,6.93-0.22,10.18,0.81c3.58,1.13,7.53,5.87,7.82,9.38
				c0.33,3.99-6,8.22-7.27,9.03c-1.52,0.97-3.72,1.23-5.66,1.47c-0.74,0.09-1.81,0.22-2.33,0.37c-0.64,2.73-0.51,5.8-0.38,9.05
				c0.04,0.95,0.08,1.93,0.1,2.92l5.45-0.01c5.08-0.02,9.92-0.03,14.76,0.04c4.53,0.06,8.04,1.34,10.17,3.68
				c1.57,1.73,2.29,3.98,2.07,6.51c-0.55,6.47-4.71,9.75-12.37,9.75c-0.06,0-0.12,0-0.19,0c-3.91-0.03-7.83-0.02-11.74,0
				c-5.26,0.01-10.53,0.03-15.8-0.05c-8.52-0.12-12.09-3.68-12.33-12.26l-0.05-1.65c-0.09-2.75-0.18-5.6,0.07-8.41
				c0.72-8.09-0.3-13.62-7.61-17.91c-7.29-4.28-8.82-12.89-8.81-19.35c0.06-66.77,1.08-144.34,12.49-219.91
				c2.87-19.01,7.41-38.05,11.8-56.47c1.76-7.35,3.51-14.71,5.16-22.08c1.71-7.59,6.21-13.65,14.16-19.07
				c25.07-17.09,50.02-34.74,73.42-51.35c4.85-3.44,9.05-3.89,14.5-1.54c45.03,19.41,90.67,19.37,135.65-0.12
				c5.15-2.23,9.3-1.79,13.89,1.44c9.72,6.86,19.47,13.67,29.22,20.48c15.45,10.79,31.42,21.94,46.98,33.12
				c4.13,2.97,7.89,7.78,9.81,12.54c10.48,26.1,15,53.74,18.73,79.82c10.82,75.7,12.27,152.11,12.79,217.78
				c0.11,14.46-4.45,23.51-14.78,29.34c-0.67,0.38-1.55,2.48-1.65,4.54c-0.21,4.45-0.18,9.01-0.16,13.41
				c0.01,2.09,0.02,4.19,0.01,6.28c-0.04,7.19-4,11.22-11.15,11.34C416.46,465.77,411.18,465.81,405.63,465.81z M400.22,448.96
				c-2.98,0-5.94,0.01-8.9,0.04c-3.54,0.04-7.77,1.24-7.81,6.73c-0.05,5.55,4.16,6.76,7.71,6.8c11.05,0.13,20.97,0.12,30.31-0.04
				c5.36-0.09,7.98-2.76,8.01-8.16c0.01-2.08,0-4.16-0.01-6.25c-0.02-4.45-0.05-9.05,0.17-13.58c0.09-1.89,0.89-5.83,3.27-7.17
				c9.33-5.26,13.26-13.2,13.16-26.54c-0.51-65.57-1.96-141.85-12.75-217.35c-3.7-25.89-8.18-53.32-18.53-79.09
				c-1.7-4.24-5.04-8.51-8.71-11.14c-15.55-11.16-31.51-22.31-46.95-33.09c-9.75-6.81-19.51-13.63-29.23-20.49
				c-3.71-2.62-6.63-2.93-10.79-1.12c-45.82,19.85-92.3,19.89-138.18,0.12c-4.39-1.89-7.48-1.57-11.4,1.21
				c-23.41,16.62-48.37,34.28-73.47,51.39c-7.24,4.94-11.32,10.38-12.84,17.13c-1.66,7.38-3.42,14.75-5.18,22.12
				c-4.38,18.36-8.9,37.33-11.75,56.21c-11.38,75.36-12.39,152.78-12.45,219.44c-0.01,5.63,1.24,13.09,7.23,16.6
				c8.7,5.11,9.96,12.06,9.17,20.94c-0.23,2.62-0.14,5.37-0.06,8.03l0.05,1.67c0.2,6.92,2.34,9.06,9.19,9.16
				c5.25,0.08,10.5,0.06,15.74,0.05c3.93-0.01,7.85-0.02,11.77,0c0.07,0,0.13,0,0.19,0c6.02,0,8.77-2.05,9.18-6.83
				c0.14-1.64-0.29-3.02-1.26-4.1c-1.49-1.65-4.28-2.58-7.85-2.63c-4.82-0.07-9.65-0.05-14.71-0.04l-8.63,0.01v-1.59
				c0-1.5-0.06-2.97-0.12-4.39c-0.15-3.67-0.29-7.13,0.59-10.43c0.47-1.75,2.53-2,4.92-2.29c1.52-0.19,3.42-0.41,4.33-1
				c3.53-2.24,5.89-5,5.8-6.07c-0.19-2.27-3.23-5.85-5.61-6.6c-2.74-0.86-5.85-0.76-9.12-0.66c-1.74,0.06-3.47,0.11-5.18,0.02
				c-9.61-0.48-12.38-3.34-12.37-12.76c0.05-64.03,1.39-132.78,10.7-201.67c2.83-20.93,7.47-41.93,11.96-62.24
				c1.78-8.06,3.56-16.12,5.24-24.2c0.68-3.26,2.06-7.58,4.83-9.64c9.64-7.2,19.29-13.94,29.51-21.08
				c3.41-2.38,6.83-4.77,10.27-7.19l1.53-1.07l0.82,1.67c23.67,48.04,58.99,71.4,107.98,71.4c0.03,0,0.07,0,0.1,0
				c48.9-0.03,84.12-23.38,107.69-71.37l0.82-1.67l1.52,1.06c3,2.09,5.92,4.22,8.81,6.33c6.51,4.75,12.65,9.23,19.29,13.03
				c10.55,6.03,16.78,14.78,19.58,27.54c0.6,2.73,1.31,5.44,2.02,8.15c0.66,2.52,1.32,5.04,1.89,7.58
				c8.38,37.06,13.63,75.92,15.59,115.52c1.89,38.11,3.1,76.88,4.26,114.38c0.35,11.25,0.7,22.5,1.07,33.76
				c0.29,8.79-2.74,11.94-12,12.49c-1.8,0.11-3.65,0.05-5.43-0.01c-3.2-0.11-6.21-0.2-8.91,0.61c-2.67,0.8-5.87,4.44-5.87,6.12
				c0,1.52,2.6,4.3,6.19,6.6c1,0.65,2.77,0.63,4.61,0.63c1.02,0,2.04-0.01,3.05,0.08l1.46,0.13v18.81l-8.73-0.01
				C404.72,448.96,402.46,448.96,400.22,448.96z M249.06,135.86c-40.47,0-72.18-20-92.19-58.37c-1.65-3.17-3.04-6.52-2.01-9.58
				c0.74-2.19,2.63-3.98,5.78-5.47c1.96-0.93,3.75-2.25,5.82-3.79c1.02-0.76,2.08-1.54,3.22-2.33l1.67-1.15l0.72,1.9
				c15.58,40.91,41.91,60.3,80.63,59.13c35.75-1.03,60.26-20.44,74.94-59.35l0.73-1.94l1.68,1.2c1.33,0.95,2.64,1.86,3.92,2.75
				c3.5,2.44,6.81,4.75,9.94,7.33c1.65,1.37,1.68,5.02,0.89,6.72c-17.6,37.83-45.71,58.81-83.54,62.36
				C257.12,135.66,253.05,135.86,249.06,135.86z M169.85,60.12c-0.5,0.37-1,0.73-1.48,1.09c-2.12,1.57-4.12,3.06-6.36,4.12
				c-2.33,1.1-3.68,2.28-4.12,3.6c-0.52,1.56,0,3.61,1.81,7.09c21.33,40.91,56.36,60.31,101.28,56.08
				c36.63-3.44,63.86-23.8,80.95-60.53c0.37-0.79,0.21-2.58-0.08-2.98c-2.97-2.44-6.23-4.71-9.68-7.12
				c-0.75-0.52-1.5-1.05-2.27-1.59c-15.27,38.97-40.51,58.44-77.09,59.49C213.25,120.49,186.06,101.14,169.85,60.12z M248.56,102.96
				c-1.17,0-2.34-0.02-3.53-0.07c-26.08-1.1-51.58-21-56.84-44.36l-0.62-2.77l2.69,0.91c40.25,13.59,79.45,13.53,119.82-0.19
				l3.01-1.02l-0.98,3.02C303.16,86.16,278.98,102.96,248.56,102.96z M192.05,60.61c6.28,20.83,29.44,38.09,53.13,39.09
				c29.47,1.19,53.22-13.7,62.85-39.18C268.98,73.14,230.98,73.17,192.05,60.61z"/>
		</g>
		<g>
			<path class="st0" d="M249.94,398c39.3,0,78.61,0.02,117.91-0.01c12.28-0.01,14.06-1.61,13.53-13.93
				c-2.3-53.61-4.99-107.2-7.13-160.81c-0.82-20.45-0.51-40.95-0.81-61.43c-0.07-4.89,1.01-9.03,6.21-10.59
				c5.66-1.7,10.03,2.58,10.18,9.99c0.42,20.24,0.34,40.49,1.18,60.71c2.12,51.02,4.64,102.03,6.96,153.05
				c0.22,4.94,0.29,9.89,0.19,14.83c-0.17,8.87-3.89,16.04-11.47,20.64c-3.64,2.21-5.14,4.55-5.17,8.9
				c-0.13,19.03-9.35,28.06-28.25,28.07c-69.19,0.04-138.38,0.05-207.58,0.06c-17.69,0-27.38-9.56-27.41-27.52
				c-0.01-4.5-1.26-7.16-5.24-9.58c-8.06-4.89-11.86-12.57-11.42-22.04c1.44-31.5,3.27-62.99,4.41-94.5
				c1.56-43.04,2.66-86.09,3.87-129.14c0.27-9.78,2.47-13.74,8.23-13.71c5.81,0.03,8.51,4.09,8.16,13.73
				c-2.36,65.14-4.85,130.28-7.26,195.42c-0.31,8.47-0.52,16.94-0.65,25.41c-0.16,10.37,1.79,12.46,12.24,12.48
				c38.13,0.08,76.25,0.03,114.38,0.04c1.65,0,3.29,0,4.94,0C249.94,398.04,249.94,398.02,249.94,398z M250.65,414.61
				c-36.2,0-72.41-0.04-108.61,0.07c-2.85,0.01-7.19-1.77-7.47,3.7c-0.26,5.12,0.06,10.17,6.04,12.07c1.95,0.62,4.18,0.49,6.29,0.49
				c67.71,0.03,135.41,0.04,203.12,0.03c2.58,0,5.21,0.18,7.74-0.22c6.68-1.05,7.56-6.02,7.55-11.6c-0.01-6.53-4.93-4.45-8.16-4.46
				C321.65,414.58,286.15,414.63,250.65,414.61z"/>
			<path class="st1" d="M145.7,449.07c-18.67,0-28.97-10.34-29-29.11c-0.01-4.12-1.14-6.19-4.48-8.22
				c-8.44-5.13-12.66-13.24-12.19-23.48c0.52-11.38,1.09-22.77,1.66-34.15c0.99-19.77,2.02-40.22,2.74-60.34
				c1.27-35.1,2.26-70.79,3.21-105.31l0.66-23.82c0.22-7.93,1.57-15.26,9.77-15.26c0.02,0,0.04,0,0.06,0c2.78,0.01,5,0.86,6.6,2.53
				c2.37,2.47,3.37,6.55,3.14,12.85c-1.53,42.16-3.11,84.31-4.69,126.47l-2.58,68.95c-0.3,8.1-0.52,16.4-0.65,25.38
				c-0.08,5.15,0.4,7.67,1.7,8.99c1.29,1.31,3.88,1.85,8.95,1.86c27.66,0.05,55.32,0.05,82.98,0.04l36.34-0.07l32.16,0
				c28.58,0.01,57.17,0.01,85.75-0.02c5.48,0,8.95-0.32,10.47-1.91c1.53-1.59,1.69-5.14,1.47-10.35c-0.95-22.2-1.97-44.4-2.99-66.59
				c-1.42-30.88-2.88-62.81-4.14-94.22c-0.54-13.39-0.59-27.01-0.65-40.19c-0.03-7.09-0.06-14.19-0.16-21.28
				c-0.06-4.25,0.64-10.13,7.35-12.14c2.82-0.85,5.58-0.44,7.75,1.14c2.79,2.03,4.39,5.71,4.48,10.35
				c0.15,7.15,0.23,14.3,0.32,21.45c0.15,12.86,0.31,26.17,0.86,39.23c1.41,34.1,3.04,68.76,4.61,102.28
				c0.79,16.92,1.59,33.84,2.35,50.76c0.23,4.97,0.29,9.99,0.2,14.93c-0.19,9.63-4.42,17.23-12.24,21.97
				c-3.27,1.99-4.38,3.89-4.41,7.55c-0.14,19.94-9.9,29.64-29.84,29.65C284.09,449.06,214.9,449.07,145.7,449.07L145.7,449.07z
				 M118.08,152.58c-3.95,0-6.29,2.01-6.58,12.16l-0.66,23.82c-0.95,34.53-1.94,70.23-3.21,105.34c-0.73,20.14-1.76,40.6-2.75,60.38
				c-0.57,11.38-1.14,22.76-1.66,34.14c-0.41,8.99,3.28,16.12,10.66,20.6c4.31,2.62,6,5.69,6.01,10.94
				c0.02,16.96,8.95,25.93,25.81,25.93c0,0,0,0,0,0c69.19-0.01,138.38-0.01,207.58-0.05c18.06-0.01,26.53-8.43,26.65-26.49
				c0.03-4.8,1.7-7.68,5.94-10.25c6.94-4.21,10.54-10.71,10.7-19.31c0.1-4.87,0.03-9.83-0.19-14.72
				c-0.77-16.92-1.56-33.83-2.36-50.75c-1.57-33.53-3.2-68.2-4.61-102.3c-0.54-13.1-0.7-26.43-0.86-39.32
				c-0.09-7.14-0.17-14.29-0.32-21.43c-0.07-3.57-1.23-6.42-3.17-7.84c-1.37-1-3.09-1.22-4.96-0.66c-3.68,1.1-5.15,3.72-5.08,9.04
				c0.1,7.1,0.13,14.21,0.16,21.31c0.06,13.14,0.11,26.74,0.65,40.07c1.26,31.4,2.72,63.33,4.14,94.2c1.02,22.2,2.04,44.4,2.99,66.6
				c0.27,6.36-0.02,10.26-2.35,12.7c-2.33,2.44-6.13,2.89-12.77,2.89c-28.58,0.03-57.16,0.02-85.75,0.02l-30.56,0v0.06l-37.94,0
				c-27.65,0.01-55.32,0.01-82.98-0.04c-5.23-0.01-8.92-0.48-11.22-2.82c-2.29-2.33-2.7-6.04-2.62-11.28
				c0.14-9,0.35-17.32,0.65-25.45l2.58-68.95c1.58-42.16,3.16-84.31,4.68-126.47c0.19-5.23-0.57-8.77-2.25-10.53
				c-0.99-1.04-2.41-1.55-4.31-1.55C118.11,152.58,118.1,152.58,118.08,152.58z M353.68,432.62c-0.63,0-1.25-0.01-1.86-0.02
				l-1.8-0.02c-67.69,0.01-135.41,0-203.12-0.03l-0.96,0.01c-1.91,0.02-3.92,0.04-5.81-0.57c-7.72-2.46-7.35-9.76-7.15-13.67
				c0.1-2,0.68-3.43,1.78-4.36c1.65-1.41,3.89-1.16,5.68-0.97c0.56,0.06,1.18,0.12,1.6,0.12c28.84-0.09,57.69-0.08,86.54-0.08
				l49.8,0.01c26.26,0,52.52,0,78.78,0.09c0.01,0,0.02,0,0.02,0c0.55,0,1.16-0.07,1.79-0.14c1.97-0.22,4.42-0.48,6.16,1.07
				c1.2,1.07,1.78,2.75,1.78,5.12c0,3.82,0.01,11.78-8.9,13.17C356.57,432.57,355.11,432.62,353.68,432.62z M350.02,429.39
				l1.86,0.02c1.97,0.03,3.84,0.06,5.64-0.22c5.19-0.81,6.21-4.29,6.2-10.02c0-1.38-0.25-2.33-0.72-2.75
				c-0.68-0.61-2.21-0.44-3.68-0.28c-0.75,0.08-1.48,0.16-2.14,0.16c-0.01,0-0.02,0-0.03,0c-26.26-0.09-52.52-0.09-78.77-0.09
				l-49.8-0.01c-28.83,0-57.68-0.01-86.53,0.08c-0.01,0-0.02,0-0.02,0c-0.6,0-1.26-0.07-1.93-0.14c-1.24-0.14-2.67-0.29-3.27,0.23
				c-0.48,0.41-0.63,1.37-0.66,2.1c-0.29,5.68,0.41,9.03,4.93,10.47c1.42,0.45,3.16,0.43,4.82,0.42l0.98-0.01
				C214.61,429.39,282.35,429.4,350.02,429.39z"/>
		</g>
	</g>
	<g>
		<g>
			<path class="st0" d="M186.87,229.46l7.99,5.89l-7.52,13.6c-3.76,6.27,2.7,12.38,6.81,14.5c4.05,2.09,10.34,2.34,16.21,2.27
				l10.57-16.32l7.99,4.08l-13.86-24.25L186.87,229.46z M188.04,262.75l17.15,29.92c3.45,4.15,9.94,5.14,16.68,4.99h18.09v-28.33
				l-34.29-0.23C200.34,269.39,193.37,268.34,188.04,262.75z M295.93,207.62l-9.33,3.74l-8.95-12.8
				c-3.99-6.14-12.77-3.77-16.74-1.41c-3.9,2.33-7.18,7.4-9.96,12.29l9.99,16.64l-7.65,4.62l29.18,0.31L295.93,207.62z
				 M264.53,192.45l-36.02-0.34c-5.52,0.83-9.58,5.72-12.7,11.36l-8.77,14.94l26.24,13.73l16.84-28.21
				C252.41,199.38,256.77,194.14,264.53,192.45z M266.09,307.88l1.06-9.52l16.19-1.19c7.62-0.31,9.69-8.72,9.42-13.14
				c-0.27-4.35-3.37-9.52-6.55-14.18l-20.26,0.18l-0.57-8.56l-14.43,23.95L266.09,307.88z M295.36,289.3l17.78-29.58
				c1.91-4.96-0.66-10.69-4.36-16l-9.58-14.48l-25.44,15.01l17.97,27.58C294.82,275.93,297.56,282.07,295.36,289.3z"/>
			<path class="st1" d="M267.2,312.37l-18.14-26.9l17.58-29.17l0.81,12.12l19.6-0.18l0.48,0.7c3.21,4.71,6.53,10.17,6.83,14.98
				c0.07,1.18,0,2.52-0.25,3.91c1.53-6.37-1.1-11.67-3.66-15.06l-18.94-29.07l28.18-16.63l10.42,15.75
				c4.86,6.97,6.34,12.69,4.52,17.45l-24.55,40.9l2.85-9.37c-0.57,1.31-1.31,2.54-2.25,3.58c-1.91,2.11-4.35,3.25-7.27,3.37
				l-14.82,1.09L267.2,312.37z M252.84,285.38l12.14,18.01l0.73-6.52l17.52-1.28c2.07-0.09,3.77-0.87,5.08-2.32
				c2.2-2.44,3.02-6.44,2.86-9.13c-0.23-3.83-3.13-8.7-5.8-12.68l-20.91,0.19l-0.33-5L252.84,285.38z M276,244.77l17.06,26.19
				c2.07,2.74,4.2,6.65,4.63,11.38l14.09-23.44c1.3-3.45-0.07-8.19-4.3-14.26l-8.77-13.26L276,244.77z M220.61,299.26
				c-8.07,0-13.53-1.83-16.64-5.58l-23.87-41.6l6.71,7.05c-0.81-1.15-1.46-2.4-1.83-3.7c-0.71-2.5-0.37-5.03,0.99-7.3l6.81-12.33
				l-10.71-7.9l33.9-0.27l16.97,29.7l-11.47-5.86l-10.25,15.83l-0.85,0.01c-5.92,0.07-12.53-0.16-16.96-2.44
				c-0.51-0.27-1.04-0.57-1.57-0.92c4.57,3.25,9.83,3.77,13.72,3.55l35.98,0.24v31.51h-19.68
				C221.44,299.25,221.02,299.26,220.61,299.26z M193.12,268.4l13.45,23.47c2.45,2.92,7.52,4.34,15.26,4.18h16.53V270.9l-32.71-0.22
				C202.13,270.89,197.54,270.53,193.12,268.4z M191.66,231.01l5.26,3.88l-8.19,14.82c-0.95,1.59-1.16,3.15-0.69,4.83
				c0.9,3.18,4.18,6.11,6.84,7.48c3.62,1.87,9.57,2.16,14.6,2.1l10.89-16.8l4.5,2.3l-10.74-18.79L191.66,231.01z M233.87,234.25
				l-29.06-15.21l9.61-16.38c4.09-7.36,8.62-11.34,13.84-12.13l50.48,0.46l-9.44,2.05c3.73-0.09,7.35,1.06,9.67,4.65l8.19,11.72
				l12.42-4.98l-16.21,28.19l-35.72-0.38l11.09-6.7l-9.65-16.08l0.46-0.81c2.8-4.93,6.24-10.31,10.53-12.87
				c0.29-0.17,0.59-0.34,0.92-0.51c-4.96,2.23-7.85,6.16-9.48,9.37L233.87,234.25z M209.26,217.77l23.42,12.26l16.06-26.92
				c1.5-2.96,4-6.52,8-9.13l-28.25-0.27c-3.92,0.61-7.7,4.06-11.29,10.54L209.26,217.77z M258.92,229.16l22.63,0.24l10.7-18.6
				l-6.24,2.5l-9.68-13.84c-3.43-5.29-11.32-2.92-14.61-0.95c-3.44,2.05-6.42,6.57-8.93,10.9l10.32,17.2L258.92,229.16z"/>
		</g>
	</g>
</g>
</svg>
