<?xml version="1.0" encoding="utf-8"?>
<!-- Generator: Adobe Illustrator 24.3.0, SVG Export Plug-In . SVG Version: 6.00 Build 0)  -->
<svg version="1.1" id="Layer_1" xmlns="http://www.w3.org/2000/svg" xmlns:xlink="http://www.w3.org/1999/xlink" x="0px" y="0px"
	 viewBox="0 0 500 500" style="enable-background:new 0 0 500 500;" xml:space="preserve">
<style type="text/css">
	.st0{fill:#4D4D4D;}
	.st1{fill:#FFFFFF;}
</style>
<g>
	<g>
		<path class="st0" d="M250.19,464.89c-39.86,0-79.72,0-119.58,0c-10.16,0-12.58-2.31-12.58-12.41
			c-0.04-54.73-0.14-109.45,0.08-164.18c0.02-5.63-1.82-7.73-7.1-8.94c-16.77-3.83-33.42-8.13-50.11-12.3
			c-7.73-1.93-9.97-5.01-8.26-12.74c8.16-37.05,15.74-74.25,25.05-111.02c6.48-25.59,24.05-42.1,49.14-50.41
			c0.89-0.3,1.79-0.71,2.71-0.79c19-1.59,32.45-11.73,43.06-26.97c4.83-6.93,10.96-12.95,16.42-19.45
			c5.82-6.94,13.21-10.52,22.23-10.54c25.71-0.05,51.42-0.03,77.12-0.02c9.31,0,16.8,3.72,22.82,10.83
			c10.21,12.06,20.46,24.09,31.01,35.85c2.18,2.43,5.57,4.23,8.74,5.22c8.53,2.67,17.48,4.1,25.84,7.19
			c28.37,10.46,42.89,32.11,48.89,60.92c6.63,31.83,14,63.51,21.03,95.26c2.72,12.31,1.57,14.17-10.65,17.27
			c-15.53,3.95-31.02,8.06-46.63,11.67c-5.43,1.26-7.54,3.25-7.51,9.32c0.27,54.02,0.13,108.03,0.1,162.05
			c-0.01,12.55-1.62,14.13-14.38,14.13c-39.15,0-78.3,0-117.45,0C250.19,464.87,250.19,464.88,250.19,464.89z M241.48,133.34
			c-3.52-2.27-6.31-4-9.03-5.83c-7.46-5.03-12.47-5.39-18.99,0.77c-5.04,4.77-9.05,10.76-12.93,16.59
			c-5.2,7.81-11.14,8.23-16.51,0.42c-5.61-8.16-10.92-16.52-16.47-24.72c-3.95-5.83-7.01-14.57-12.42-16.48
			c-5.78-2.05-13.95,2.09-20.92,4.05c-21.8,6.14-35.94,20.19-41.33,42.23c-5.43,22.2-10.19,44.56-15.18,66.87
			c-2.55,11.42-4.95,22.87-7.55,34.9c16.13,4.03,31.5,7.86,47.87,11.95c0-3.85,0-6.39,0-8.94c0-20.05,0.04-40.1-0.02-60.14
			c-0.02-5.82,1.37-10.51,8.2-10.87c5.26-0.28,8.19,3.63,8.23,10.81c0.13,26.88,0.26,53.77,0.24,80.65
			c-0.04,54.95-0.06,109.91-0.42,164.86c-0.04,6.6,2.36,7.66,8.21,7.65c71.69-0.15,143.38-0.07,215.07-0.07
			c2.49,0,4.98-0.26,8.14-0.44c0-3.75,0-6.76,0-9.78c-0.02-72.41-0.05-144.81-0.06-217.22c0-9.43-0.02-18.87,0.18-28.3
			c0.1-4.99,2.91-8.06,7.93-8.13c5.01-0.07,7.8,2.88,8.2,7.87c0.2,2.58,0.17,5.19,0.17,7.78c-0.01,18.63-0.03,37.27-0.05,55.9
			c0,2.47,0,4.93,0,8.52c16.74-4.24,32.1-8.14,47.64-12.08c-0.3-2.05-0.4-3.21-0.65-4.33c-5.97-26.91-13.33-53.61-17.59-80.79
			c-5.67-36.16-24.51-57.49-61.02-63.16c-4.96-0.77-7.14,0.19-9.62,4.03c-7.92,12.29-16.08,24.41-24.27,36.52
			c-6.1,9.01-11.62,8.46-17.66-0.53c-4.26-6.34-9.35-12.34-15.03-17.44c-4.57-4.1-10.21-3.64-15.48,0.5
			c-11.68,9.19-17.95,21.06-18.22,35.86c-0.26,14.62-0.14,29.25-0.08,43.87c0.02,5.79-2.28,10.11-8.3,10.13
			c-6.06,0.02-8.35-4.49-8.37-10.14c-0.05-11.09,0.18-22.18-0.14-33.25C232.85,159.57,233.97,146.08,241.48,133.34z M250.28,51.98
			c-12.95,0-25.9-0.16-38.85,0.05c-9.29,0.15-14.41,8.33-8.88,15.41c12.12,15.52,24.76,30.7,38.19,45.09
			c7.02,7.52,11.11,7.63,18.13,0.28c13.26-13.89,25.49-28.8,37.54-43.78c2.14-2.66,2.51-7.99,1.61-11.56
			c-1.25-4.99-6.23-5.58-11.02-5.53C274.77,52.05,262.52,51.97,250.28,51.98z M186.48,74.4c-5.18,5.96-10.3,11.71-15.2,17.64
			c-0.66,0.8-0.74,2.88-0.17,3.77c6.58,10.17,13.34,20.22,19.96,30.18c7.34-6.3,13.98-11.99,20.71-17.77
			C203.53,97.19,195.26,86.13,186.48,74.4z M313.56,74.43c-8.89,11.86-17.29,23.09-25.3,33.78c7.06,6.04,13.73,11.75,20.71,17.72
			c6.45-9.68,12.91-19.21,19.14-28.88c0.83-1.3,1.34-3.99,0.6-4.92C323.93,86.11,318.75,80.4,313.56,74.43z"/>
		<path class="st1" d="M210.33,466.48h-79.72c-11.12,0-14.17-3.01-14.18-14l-0.02-22.74c-0.05-46.36-0.09-94.29,0.1-141.44
			c0.02-4.79-1.19-6.31-5.86-7.38c-12.98-2.96-26.11-6.27-38.8-9.46l-11.33-2.85c-8.75-2.18-11.3-6.15-9.43-14.63
			c2.06-9.35,4.08-18.7,6.1-28.05c5.9-27.28,12-55.5,18.96-83.01c6.4-25.29,23.29-42.63,50.19-51.53l0.65-0.23
			c0.72-0.26,1.54-0.56,2.43-0.64c17.08-1.43,30.39-9.79,41.89-26.29c3.22-4.63,7.04-8.88,10.74-13c1.95-2.17,3.9-4.34,5.76-6.57
			c6.17-7.35,14.06-11.09,23.45-11.11c21.65-0.04,43.3-0.03,64.95-0.02l12.18,0c9.55,0,17.64,3.84,24.04,11.4
			c9.77,11.55,20.22,23.82,30.98,35.81c1.78,1.99,4.71,3.73,8.03,4.77c3.61,1.13,7.37,2.05,11.01,2.95
			c4.94,1.21,10.04,2.47,14.9,4.26c26.95,9.94,43.27,30.25,49.9,62.1c4.53,21.78,9.5,43.85,14.3,65.21
			c2.25,10.01,4.5,20.02,6.72,30.04c2.91,13.15,1.26,15.84-11.81,19.16c-3.92,1-7.83,2-11.74,3.01
			c-11.42,2.94-23.23,5.97-34.92,8.68c-4.66,1.07-6.31,2.41-6.28,7.76c0.21,42.41,0.17,85.53,0.13,127.23l-0.03,34.83
			c-0.01,13.37-2.4,15.73-15.97,15.73L210.33,466.48z M248.38,36.71c-12.37,0-24.74,0.01-37.11,0.03
			c-8.41,0.02-15.48,3.37-21.02,9.97c-1.89,2.25-3.86,4.45-5.83,6.65c-3.63,4.05-7.39,8.23-10.5,12.69
			c-11.91,17.1-26.38,26.15-44.24,27.64c-0.47,0.04-1.02,0.24-1.6,0.45l-0.74,0.26c-25.8,8.54-41.98,25.13-48.1,49.29
			c-6.95,27.46-13.05,55.65-18.94,82.9c-2.02,9.36-4.05,18.72-6.11,28.07c-1.49,6.76,0.04,9.09,7.09,10.85l11.34,2.85
			c12.68,3.19,25.79,6.49,38.74,9.45c6.1,1.39,8.37,4.24,8.34,10.5c-0.19,47.14-0.14,95.07-0.09,141.42l0.02,22.74
			c0.01,9.2,1.65,10.81,10.99,10.81l237.03-0.03c11.94,0,12.78-0.82,12.79-12.54l0.03-34.83c0.04-41.7,0.08-84.81-0.13-127.21
			c-0.03-6.53,2.26-9.38,8.75-10.88c11.65-2.69,23.44-5.73,34.84-8.66c3.92-1.01,7.83-2.01,11.75-3.01
			c11.4-2.9,12.02-3.91,9.48-15.38c-2.22-10.01-4.47-20.02-6.72-30.03c-4.8-21.36-9.77-43.45-14.31-65.25
			c-6.39-30.68-22.05-50.23-47.88-59.75c-4.7-1.73-9.71-2.96-14.56-4.16c-3.69-0.91-7.51-1.84-11.21-3
			c-3.85-1.21-7.3-3.28-9.45-5.68c-10.79-12.02-21.25-24.32-31.04-35.88c-5.84-6.91-12.91-10.27-21.6-10.27l-12.18,0
			C266.93,36.71,257.65,36.71,248.38,36.71z M142.36,449.7c-3.35,0-5.93-0.36-7.64-2.08c-1.45-1.46-2.09-3.67-2.07-7.17
			c0.34-52.47,0.38-105.83,0.42-157.42l0-7.43c0.02-26.6-0.11-53.65-0.24-79.81l0-0.83c-0.02-3.69-0.85-6.42-2.41-7.89
			c-1.03-0.97-2.43-1.42-4.14-1.33c-4.9,0.26-6.71,2.77-6.69,9.27c0.05,14.62,0.04,29.24,0.03,43.86l-0.01,27.27l-51.35-12.81
			l2.71-12.63c1.73-8.07,3.41-15.94,5.17-23.79c1.25-5.58,2.48-11.16,3.71-16.74c3.64-16.47,7.4-33.49,11.47-50.16
			c5.48-22.39,19.76-36.99,42.45-43.39c1.69-0.48,3.46-1.09,5.24-1.7c5.78-1.99,11.77-4.05,16.65-2.32c4.41,1.56,7.26,6.69,10,11.65
			c1.04,1.87,2.11,3.81,3.21,5.43c2.48,3.66,4.91,7.35,7.34,11.04c3.01,4.58,6.03,9.16,9.13,13.67c1.56,2.26,3.99,4.96,6.78,4.96
			c0.01,0,0.02,0,0.03,0c2.9-0.02,5.43-2.93,7.06-5.36c3.71-5.58,7.92-11.91,13.16-16.86c7.74-7.33,13.76-5.79,20.97-0.94
			c1.81,1.22,3.66,2.4,5.73,3.72l4.57,2.92l-0.78,1.32c-7.65,12.98-8.37,26.53-8.01,39.24c0.21,7.39,0.18,14.9,0.15,22.16
			c-0.02,3.71-0.03,7.43-0.01,11.14c0.02,5.68,2.29,8.56,6.74,8.56c0.01,0,0.02,0,0.03,0c2.35-0.01,4.02-0.74,5.13-2.25
			c1.04-1.42,1.59-3.59,1.58-6.28l-0.03-6.59c-0.06-12.23-0.11-24.88,0.11-37.32c0.27-14.99,6.6-27.47,18.83-37.08
			c6.1-4.8,12.49-4.96,17.53-0.43c5.63,5.05,10.77,11.02,15.28,17.73c2.82,4.19,5.42,6.31,7.74,6.32c0,0,0,0,0.01,0
			c2.22,0,4.67-1.95,7.27-5.79c8.27-12.22,16.34-24.21,24.25-36.49c2.84-4.4,5.66-5.6,11.2-4.75c36.03,5.6,56.43,26.69,62.35,64.49
			c2.93,18.68,7.41,37.47,11.74,55.65c1.99,8.34,3.98,16.68,5.83,25.05c0.17,0.76,0.28,1.54,0.41,2.58l0.47,3.28l-51.03,12.94
			l0.02-25.28c0.02-13.73,0.03-27.46,0.04-41.19l0-0.91c0-2.23,0.01-4.53-0.17-6.74c-0.34-4.3-2.4-6.49-6.59-6.4
			c-5.14,0.07-6.3,3.61-6.36,6.57c-0.18,8.72-0.18,17.59-0.18,26.18l0.06,230.6l-1.51,0.08c-1.05,0.06-2.03,0.13-2.95,0.19
			c-1.89,0.13-3.58,0.25-5.28,0.25l-57.83-0.01c-52.42-0.02-104.83-0.04-157.24,0.08C142.42,449.7,142.39,449.7,142.36,449.7z
			 M126.69,182.53c2.34,0,4.37,0.76,5.91,2.21c2.24,2.12,3.39,5.55,3.41,10.2l0,0.83c0.12,26.16,0.26,53.22,0.24,79.83l0,7.43
			c-0.04,51.6-0.08,104.96-0.42,157.44c-0.02,2.55,0.35,4.11,1.14,4.9c0.81,0.82,2.36,1.14,5.48,1.14
			c52.42-0.12,104.83-0.1,157.25-0.08l57.83,0.01c1.62,0,3.24-0.11,5.05-0.24c0.48-0.03,0.98-0.07,1.49-0.1l-0.06-227.58
			c0-8.6-0.01-17.49,0.18-26.24c0.13-5.98,3.68-9.61,9.5-9.69c5.59-0.14,9.35,3.41,9.81,9.34c0.19,2.35,0.18,4.71,0.18,7l0,0.9
			c0,13.73-0.02,27.46-0.04,41.19l-0.02,21.18l44.27-11.23l-0.07-0.48c-0.12-0.93-0.21-1.63-0.37-2.31
			c-1.85-8.35-3.84-16.67-5.82-25c-4.35-18.23-8.84-37.09-11.79-55.89c-5.76-36.75-24.73-56.4-59.69-61.83
			c-4.3-0.67-5.88-0.02-8.03,3.32c-7.93,12.31-16.02,24.31-24.29,36.55c-3.27,4.84-6.51,7.19-9.91,7.19c0,0-0.01,0-0.01,0
			c-3.5,0-6.9-2.53-10.39-7.73c-4.31-6.4-9.41-12.33-14.77-17.14c-5.16-4.64-10.63-1.64-13.43,0.57
			c-11.43,9-17.36,20.65-17.61,34.63c-0.22,12.41-0.17,25.03-0.11,37.25l0.03,6.59c0.01,3.42-0.73,6.17-2.19,8.18
			c-1.7,2.32-4.36,3.55-7.69,3.56c-0.01,0-0.03,0-0.04,0c-6.28,0-9.9-4.27-9.93-11.73c-0.02-3.72,0-7.44,0.01-11.16
			c0.03-7.24,0.06-14.72-0.15-22.05c-0.35-12.15,0.32-26.29,7.69-39.61l-1.99-1.27c-2.1-1.34-3.96-2.53-5.8-3.76
			c-7.23-4.87-11.36-4.72-17,0.61c-4.98,4.71-9.08,10.87-12.7,16.31c-2.98,4.47-6.24,6.76-9.69,6.78c-0.02,0-0.04,0-0.06,0
			c-3.35,0-6.51-2.13-9.4-6.34c-3.12-4.53-6.14-9.13-9.17-13.72c-2.42-3.68-4.84-7.36-7.31-11.01c-1.18-1.75-2.29-3.75-3.36-5.68
			c-2.46-4.44-5-9.03-8.28-10.19c-3.83-1.36-9.28,0.52-14.54,2.33c-1.84,0.63-3.67,1.26-5.41,1.76
			c-21.5,6.06-35.03,19.88-40.21,41.07c-4.07,16.63-7.82,33.64-11.46,50.09c-1.23,5.58-2.47,11.17-3.71,16.75
			c-1.75,7.85-3.44,15.71-5.16,23.77l-2.06,9.61l44.4,11.08l0.01-23.19c0.01-14.62,0.02-29.23-0.03-43.85
			c-0.02-5.13,0.97-12.01,9.71-12.47C126.3,182.53,126.5,182.53,126.69,182.53z M190.74,128.37l-5.2-7.81
			c-5.27-7.89-10.57-15.85-15.77-23.88c-0.95-1.47-0.81-4.32,0.28-5.65c3.74-4.53,7.53-8.86,11.53-13.44l4.99-5.72l27.38,36.59
			L190.74,128.37z M186.38,76.93l-2.4,2.75c-3.99,4.56-7.76,8.87-11.47,13.37c-0.21,0.33-0.26,1.54-0.06,1.89
			c5.19,8.01,10.49,15.96,15.74,23.84l3.21,4.81l18.21-15.62L186.38,76.93z M309.3,128.31l-23.21-19.86l27.38-36.55l5.15,5.89
			c3.97,4.52,7.72,8.79,11.34,13.34c1.42,1.78,0.44,5.3-0.51,6.78c-4.75,7.38-9.73,14.82-14.54,22L309.3,128.31z M290.43,107.97
			l18.21,15.58l3.62-5.41c4.8-7.18,9.77-14.6,14.51-21.95c0.59-0.92,0.84-2.68,0.65-3.14c-3.53-4.42-7.25-8.66-11.2-13.15
			l-2.56-2.93L290.43,107.97z M249.92,119.84c-0.02,0-0.03,0-0.05,0c-3.16-0.02-6.24-1.88-10.3-6.22
			c-12.31-13.19-24.83-27.97-38.28-45.2c-2.78-3.56-3.39-7.68-1.66-11.29c1.93-4.04,6.44-6.6,11.77-6.69
			c9.07-0.15,18.29-0.12,27.2-0.08c3.89,0.02,7.78,0.03,11.67,0.03l11.16,0.01c8.52,0.01,17.04,0.03,25.56-0.06
			c3.21-0.05,10.86-0.11,12.58,6.74c0.98,3.91,0.64,9.77-1.92,12.95c-11.57,14.39-24.01,29.63-37.63,43.88
			C256.06,118.06,253.03,119.84,249.92,119.84z M226.98,53.52c-5.17,0-10.37,0.02-15.51,0.11c-4.12,0.07-7.54,1.94-8.95,4.88
			c-1.19,2.48-0.71,5.38,1.3,7.95c13.39,17.15,25.85,31.86,38.1,44.98c3.35,3.59,5.81,5.2,7.98,5.21c2.03-0.08,4.55-1.51,7.83-4.94
			c13.53-14.17,25.92-29.35,37.45-43.68c1.76-2.19,2.1-7.03,1.31-10.18c-0.8-3.18-3.4-4.39-9.45-4.33
			c-8.53,0.09-17.06,0.07-25.59,0.06l-11.15-0.01c-3.89,0-7.79-0.01-11.68-0.03C234.77,53.53,230.88,53.52,226.98,53.52z"/>
	</g>
	<g>
		<path class="st0" d="M265.12,201.53c-2.25-2.98-5.86-5.71-6.45-8.99c-0.91-5.04,2.66-8.36,7.97-8.36c5.01,0,8.42,3.31,7.75,7.93
			c-0.49,3.33-3.87,6.24-5.96,9.34C267.32,201.48,266.22,201.5,265.12,201.53z"/>
		<path class="st1" d="M264.34,203.15l-0.49-0.65c-0.67-0.88-1.46-1.74-2.25-2.6c-1.97-2.14-4-4.35-4.49-7.07
			c-0.49-2.7,0.08-5.11,1.65-6.99c1.75-2.1,4.55-3.25,7.89-3.25c0,0,0.01,0,0.01,0c3.11,0,5.77,1.1,7.5,3.1
			c1.54,1.78,2.18,4.14,1.81,6.65c-0.4,2.74-2.29,5.06-4.13,7.29c-0.74,0.9-1.47,1.8-2.09,2.71l-0.46,0.68L264.34,203.15z
			 M266.65,185.77C266.64,185.77,266.64,185.77,266.65,185.77c-2.38,0-4.32,0.75-5.45,2.11c-0.94,1.13-1.27,2.64-0.95,4.38
			c0.33,1.81,1.97,3.59,3.7,5.48c0.67,0.72,1.33,1.45,1.93,2.19l1.71-0.04c0.56-0.76,1.17-1.51,1.79-2.26
			c1.63-1.99,3.16-3.86,3.44-5.73c0.24-1.61-0.14-3.02-1.07-4.11C270.62,186.48,268.81,185.77,266.65,185.77z"/>
	</g>
	<g>
		<path class="st0" d="M265.29,168.54c-2.33-2.95-6.02-5.63-6.66-8.91c-0.98-5,2.54-8.44,7.84-8.56c5.05-0.12,8.46,3.27,7.91,7.85
			c-0.4,3.34-3.76,6.33-5.8,9.47C267.48,168.44,266.38,168.49,265.29,168.54z"/>
		<path class="st1" d="M264.54,170.17l-0.51-0.64c-0.69-0.87-1.5-1.72-2.32-2.57c-2.03-2.11-4.12-4.3-4.66-7.02
			c-0.52-2.65,0.03-5.14,1.54-7.03c1.72-2.14,4.5-3.36,7.83-3.44c3.09-0.05,5.72,0.97,7.51,2.93c1.61,1.77,2.33,4.15,2.03,6.7
			c-0.33,2.76-2.19,5.12-4,7.4c-0.72,0.91-1.45,1.83-2.05,2.76l-0.45,0.69L264.54,170.17z M266.72,152.66c-0.07,0-0.15,0-0.22,0
			c-2.37,0.05-4.3,0.85-5.42,2.25c-0.93,1.16-1.24,2.68-0.9,4.41c0.36,1.81,2.04,3.56,3.83,5.43c0.69,0.71,1.37,1.43,1.99,2.16
			l1.7-0.08c0.55-0.78,1.15-1.54,1.76-2.31c1.6-2.02,3.11-3.93,3.33-5.79c0.2-1.64-0.23-3.09-1.22-4.18
			C270.47,153.32,268.75,152.66,266.72,152.66z"/>
	</g>
</g>
</svg>
