<?xml version="1.0" encoding="utf-8"?>
<!-- Generator: Adobe Illustrator 16.0.0, SVG Export Plug-In . SVG Version: 6.00 Build 0)  -->
<!DOCTYPE svg PUBLIC "-//W3C//DTD SVG 1.1//EN" "http://www.w3.org/Graphics/SVG/1.1/DTD/svg11.dtd">
<svg version="1.1" id="Layer_1" xmlns="http://www.w3.org/2000/svg" xmlns:xlink="http://www.w3.org/1999/xlink" x="0px" y="0px"
	 width="412.48px" height="65.27px" viewBox="-5.998 167.078 412.48 65.27" enable-background="new -5.998 167.078 412.48 65.27"
	 xml:space="preserve">
<g>
	<path d="M298.355,225.067l-12.419-21.788c5.501-2.634,9.004-8.188,9.01-14.287c0-8.767-7.135-15.9-15.903-15.9h-26.561v51.973
		h11.812v-20.173h9.401l11.498,20.175H298.355L298.355,225.067z M264.1,194.859V183.15h12.73l-0.049,0.02
		c3.875,0.208,6.344,2.454,6.344,5.846c0,3.355-2.645,5.706-6.588,5.846H264.1V194.859z M204.244,225.067v-51.975h38.833v9.917
		h-26.702v10.398h23.412v10.138h-23.412v11.087h28.023v10.435H204.244z M148.858,225.067l-12.419-21.788
		c5.5-2.634,9.003-8.189,9.008-14.287c0-8.767-7.133-15.9-15.9-15.9h-26.563v51.973h11.813v-20.173h9.404l11.496,20.175H148.858z
		 M114.6,194.859V183.15h12.732l-0.05,0.02c3.875,0.208,6.346,2.454,6.346,5.846c0,3.355-2.646,5.706-6.59,5.846H114.6V194.859z
		 M71.506,226.348c14.211,0,22.698-8.171,22.698-21.855v-31.363h-12.13v30.552c0,7.399-3.852,11.643-10.567,11.643H71.5
		c-6.715,0-10.565-4.243-10.565-11.643v-30.552H48.8v31.365c0,13.683,8.487,21.854,22.7,21.854H71.506z M32.935,196.281
		c7,2.387,10.412,8.342,10.412,14.084c0,8.09-6.569,14.676-14.652,14.702H0.002v-51.979h26.427
		c6.879,0.064,12.425,5.655,12.433,12.535c0.009,4.34-2.235,8.374-5.927,10.656V196.281z M11.91,215.369h13.262
		c4.169,0,6.35-3.109,6.35-6.183c0-2.476-1.969-5.962-6.35-5.962H11.91V215.369z M21.621,193.529c3.054,0,5.45-2.359,5.45-5.371
		c0-2.912-2.5-5.371-5.452-5.371H11.91v10.742H21.621z"/>
	<g transform="translate(80 -.299)">
		<path d="M107.319,196.57c7,2.385,10.412,8.342,10.412,14.084c0,8.091-6.569,14.674-14.652,14.702l-28.692-0.002v-51.977
			l26.423-0.001c6.881,0.065,12.427,5.657,12.435,12.538c0.008,4.34-2.235,8.373-5.927,10.654L107.319,196.57z M86.294,215.658
			h13.261c4.169,0,6.35-3.109,6.35-6.183c0-2.475-1.971-5.962-6.35-5.962H86.294V215.658z M96.002,193.818
			c3.058,0,5.454-2.359,5.454-5.371c0-2.912-2.5-5.371-5.454-5.371h-9.708v10.742H96.002z"/>
	</g>
	<path d="M349.758,225.067l-12.419-21.788c5.5-2.634,9.002-8.189,9.007-14.287c0-8.767-7.132-15.9-15.899-15.9h-26.562v51.973
		h11.813v-20.173h9.403l11.496,20.175h13.162H349.758z M315.5,194.859V183.15h12.732l-0.05,0.02
		c3.875,0.208,6.347,2.454,6.347,5.846c0,3.355-2.646,5.706-6.591,5.846H315.5V194.859z M367.018,225.067v-21.179l-20.619-30.796
		h15.147l11.869,17.869l11.92-17.869h15.147l-20.669,30.796v21.179H367.018z"/>
</g>
</svg>