<?xml version="1.0" encoding="UTF-8"?>
<!DOCTYPE svg PUBLIC "-//W3C//DTD SVG 1.1//EN" "http://www.w3.org/Graphics/SVG/1.1/DTD/svg11.dtd">
<!-- Creator: CorelDRAW 2018 (64-Bit) -->
<svg xmlns="http://www.w3.org/2000/svg" xml:space="preserve" width="1949px" height="2419px" version="1.1" style="shape-rendering:geometricPrecision; text-rendering:geometricPrecision; image-rendering:optimizeQuality; fill-rule:evenodd; clip-rule:evenodd"
viewBox="0 0 1186.24 1472.09"
 xmlns:xlink="http://www.w3.org/1999/xlink">
 <defs>
  <style type="text/css">
   <![CDATA[
    .fil0 {fill:#3E3E3E}
   ]]>
  </style>
 </defs>
 <g id="Layer_x0020_1">
  <metadata id="CorelCorpID_0Corel-Layer"/>
  <g id="_2704919410688">
   <path class="fil0" d="M207.16 371.47c-21.22,31.79 -41.02,64.64 -59.24,98.44l0 0c-90.1,166.85 -143.1,356.6 -147.92,558.3l0 0c102.2,55.13 213.04,96.26 329.99,120.89l0 0c-4,-29.68 -6,-60.01 -6,-90.74l0 0c0,-185.59 73.64,-354.02 193.29,-477.67l0 0c23.74,-24.62 49.37,-47.48 76.63,-68.22l0 0c26.63,20.27 51.66,42.54 74.88,66.52l0 0c120.53,123.82 194.76,292.96 194.76,479.37l0 0c0,29.79 -1.89,59.12 -5.58,87.92l0 0c116.41,-25.92 226.72,-68.23 328.27,-124.35 -5.75,-199.29 -58.53,-386.82 -147.68,-551.9l0 0c-18.16,-33.62 -37.85,-66.35 -58.95,-98.03l0 0c-100.08,-150.33 -232.13,-277.56 -386.4,-372 -154.09,94.32 -286.03,221.38 -386.05,371.47l0 0z"/>
   <path class="fil0" d="M422.02 1058.36c0,36.85 3.4,72.87 9.93,107.84l0 0c21.8,118.13 78.87,223.85 159.91,305.89l0 0c81.28,-82.33 138.46,-188.47 160.09,-307.06l0 0c6.4,-34.56 9.69,-70.24 9.69,-106.67l0 0c0,-161.26 -64.82,-307.36 -169.78,-413.73l0 0c-105.02,106.37 -169.84,252.47 -169.84,413.73l0 0z"/>
  </g>
 </g>
</svg>
