<svg xmlns="http://www.w3.org/2000/svg" xmlns:xlink="http://www.w3.org/1999/xlink" width="61.669" height="67.877" viewBox="0 0 61.669 67.877"><defs><style>.a{fill:#ff6536;}.b{fill:#ff421d;}.c{fill:#fbbf00;}.d{fill:#ffa900;}.e{filter:url(#e);}.f{filter:url(#c);}.g{filter:url(#a);}</style><filter id="a" x="0" y="0" width="58.669" height="67.877" filterUnits="userSpaceOnUse"><feOffset dy="3" input="SourceAlpha"/><feGaussianBlur stdDeviation="3" result="b"/><feFlood flood-opacity="0.702"/><feComposite operator="in" in2="b"/><feComposite in="SourceGraphic"/></filter><filter id="c" x="23.335" y="0" width="38.335" height="67.877" filterUnits="userSpaceOnUse"><feOffset dx="3" dy="3" input="SourceAlpha"/><feGaussianBlur stdDeviation="3" result="d"/><feFlood flood-opacity="0.8"/><feComposite operator="in" in2="d"/><feComposite in="SourceGraphic"/></filter><filter id="e" x="13.417" y="26.711" width="35.836" height="41.166" filterUnits="userSpaceOnUse"><feOffset dx="2" dy="3" input="SourceAlpha"/><feGaussianBlur stdDeviation="3" result="f"/><feFlood flood-opacity="0.698"/><feComposite operator="in" in2="f"/><feComposite in="SourceGraphic"/></filter></defs><g transform="translate(9 6)"><g class="g" transform="matrix(1, 0, 0, 1, -9, -6)"><path class="a" d="M47.939,24.325a20.442,20.442,0,0,0,6.1,5.345S51.048,4.39,70.538,0c-4.993,18.326,6.352,23.494,10.487,13.812,6.906,9.221,1.663,17.265,1.663,17.265,2.832.408,5.211-2.686,5.211-2.686.021.381.033.765.033,1.151a20.335,20.335,0,1,1-39.992-5.218Z" transform="translate(-38.26 6)"/></g><g class="f" transform="matrix(1, 0, 0, 1, -9, -6)"><path class="b" d="M276.3,28.392s-2.379,3.094-5.211,2.686c0,0,5.244-8.044-1.663-17.265-4.135,9.682-15.48,4.514-10.487-13.812A21.865,21.865,0,0,0,256,.879v49a20.335,20.335,0,0,0,20.335-20.335C276.335,29.156,276.323,28.773,276.3,28.392Z" transform="translate(-226.67 6)"/></g><g class="e" transform="matrix(1, 0, 0, 1, -9, -6)"><path class="c" d="M164.456,288.444a8.918,8.918,0,1,0,14.874-6.638c-3.448,4.684-8.361-2.421-4.532-7.61C174.8,274.2,164.456,275.492,164.456,288.444Z" transform="translate(-144.04 -241.48)"/></g><path class="d" d="M264.918,288.444a8.9,8.9,0,0,0-2.962-6.638c-3.448,4.684-8.362-2.421-4.532-7.61a8.974,8.974,0,0,0-1.423.342v22.824A8.918,8.918,0,0,0,264.918,288.444Z" transform="translate(-235.665 -247.485)"/></g></svg>