<svg id="Layer_1" data-name="Layer 1" xmlns="http://www.w3.org/2000/svg" viewBox="0 0 251.71 45.22"><defs><style>.cls-1{fill:#383b41;}.cls-2{font-size:23.27px;font-family:Roboto Condensed, sans-serif;letter-spacing:0.15em;}.cls-2,.cls-5{fill:#fff;}.cls-3{fill:#b3b3b3;}.cls-4{fill:#fcfcfc;}</style></defs><title>artktastic _ logo_11</title><rect className="cls-1" width="251.71" height="45.22" rx="0.09"/><text className="cls-2" transform="translate(55.04 29.41) scale(1.21 1)">ARKTASTIC</text><ellipse className="cls-3" cx="26.51" cy="39.23" rx="4.96" ry="0.53"/><path className="cls-4" d="M137.19,50.79a16.33,16.33,0,0,0-9.1,2.5h-.74l-.24-1.49a2.69,2.69,0,0,0-2.71-2.08l-3.12-.06a1,1,0,0,0-1,.91,1,1,0,0,0,1,.91l3.09.06a.67.67,0,0,1,.68.54l.52,3.21,0,.05h.07l18.93-2.95A17.17,17.17,0,0,0,137.19,50.79Z" transform="translate(-111.24 -44.89)"/><path className="cls-4" d="M127.67,65.24a1,1,0,0,0,.9.76,1,1,0,0,0,.25,0h0l14.69-2.28.1-9.35-14.93,2.32h0L126,57.1l-.36.06-.06,0h0a.9.9,0,0,0-.73,1.05,1,1,0,0,0,.9.76,1,1,0,0,0,.3,0l.19,0h0l9.94-1.54a1,1,0,0,1,1.19.75.91.91,0,0,1-.82,1L124.7,61.06l-2.74.42-.35.06a.92.92,0,0,0-.83,1.07.94.94,0,0,0,.9.76,1.51,1.51,0,0,0,.3,0l2.08-.33,10.72-1.66a1.05,1.05,0,0,1,1.2.74.93.93,0,0,1-.84,1l-3.51.55h0l-2.78.39-.36.06-.18.06-.14,0v0A.88.88,0,0,0,127.67,65.24Z" transform="translate(-111.24 -44.89)"/><path className="cls-5" d="M148.26,54.85A16.42,16.42,0,0,0,145.63,53a.89.89,0,0,1,.07.34l-.12,11.18a.93.93,0,0,1-.84.88l-13.51,2.1-1.23.19-.48.16v0a1.24,1.24,0,0,0-.69,1.37,1.33,1.33,0,0,0,1.29,1.08,2,2,0,0,0,.42,0l2.17-.34.81-.13,10.32-1.61a1,1,0,0,1,1.2.73.93.93,0,0,1-.84,1.06L131.92,71.9a3.48,3.48,0,0,1-3.82-2l-2-5.23,0-.1L123.2,65v0l-3.08.48a.92.92,0,0,0-.84,1.06,1,1,0,0,0,1.2.74L122,67a12.92,12.92,0,0,0,4.32,7.14L137.44,84l10.95-9.64a12.31,12.31,0,0,0,4.49-9.75A12.76,12.76,0,0,0,148.26,54.85Zm-15.53,22a2,2,0,0,1-2.28-1.4,1.77,1.77,0,0,1,1.6-2,2,2,0,0,1,2.28,1.4A1.78,1.78,0,0,1,132.73,76.85Zm11.14-1.73a2,2,0,0,1-2.28-1.41,1.76,1.76,0,0,1,1.6-2,2,2,0,0,1,2.28,1.4A1.77,1.77,0,0,1,143.87,75.12Z" transform="translate(-111.24 -44.89)"/></svg>