<svg id="Layer_1" data-name="Layer 1" xmlns="http://www.w3.org/2000/svg" viewBox="0 0 238.64 34.99"><defs><style>.cls-1{font-size:23.27px;font-family: "Roboto Condensed", sans-serif;letter-spacing:0.10em;}.cls-1,.cls-3{fill:#383b41;}.cls-2{fill:#b3b3b3;}</style></defs><title>artktastic</title><text class="cls-1" transform="translate(47.01 24.63) scale(1.21 1)">ARKTASTIC</text><ellipse class="cls-2" cx="18.48" cy="34.45" rx="4.96" ry="0.53"/><path class="cls-3" d="M139.07,70a16.19,16.19,0,0,0-9.1,2.5h-.74L129,71a2.69,2.69,0,0,0-2.72-2.07l-3.12-.06a1,1,0,0,0-1,.91,1,1,0,0,0,1,.9l3.09.06a.67.67,0,0,1,.68.54l.52,3.22,0,0h.06v0l18.94-2.94A17.24,17.24,0,0,0,139.07,70Z" transform="translate(-121.15 -68.84)"/><path class="cls-3" d="M129.55,84.41a.94.94,0,0,0,.91.76,1.07,1.07,0,0,0,.25,0v0L145.4,82.9l.11-9.35-14.93,2.32h0l-2.73.42-.36.06a.11.11,0,0,0-.06,0h0a.9.9,0,0,0-.73,1,.94.94,0,0,0,.91.76,1.41,1.41,0,0,0,.29,0l.19,0h0L138,76.6a1,1,0,0,1,1.2.75.93.93,0,0,1-.83,1.05l-11.78,1.83-2.73.42-.36.06a.93.93,0,0,0-.83,1.08,1,1,0,0,0,.91.76,1.41,1.41,0,0,0,.29,0l2.08-.33,10.72-1.66a1,1,0,0,1,1.2.73.94.94,0,0,1-.84,1.06l-3.51.54h0l-2.78.4-.35.06a1.39,1.39,0,0,0-.19.06l-.14,0v0A.87.87,0,0,0,129.55,84.41Z" transform="translate(-121.15 -68.84)"/><path class="cls-3" d="M150.14,74a16.48,16.48,0,0,0-2.63-1.89.94.94,0,0,1,.07.34l-.12,11.19a.94.94,0,0,1-.84.88l-13.5,2.1-1.24.19-.48.16h0a1.25,1.25,0,0,0-.69,1.37A1.35,1.35,0,0,0,132,89.47a1.46,1.46,0,0,0,.42,0l2.17-.34.81-.12,10.32-1.62a1.05,1.05,0,0,1,1.2.74.93.93,0,0,1-.84,1l-12.28,1.92a3.5,3.5,0,0,1-3.83-2l-2-5.24,0-.09-2.91.45v0l-3.09.49a.92.92,0,0,0-.84,1.06,1,1,0,0,0,1.2.73l1.49-.23a13,13,0,0,0,4.33,7.14l11.14,9.81,11-9.65a12.25,12.25,0,0,0,4.49-9.75A12.72,12.72,0,0,0,150.14,74ZM134.61,96a2,2,0,0,1-2.28-1.41,1.76,1.76,0,0,1,1.6-2,2,2,0,0,1,2.28,1.4A1.77,1.77,0,0,1,134.61,96Zm11.15-1.74a2,2,0,0,1-2.28-1.4,1.77,1.77,0,0,1,1.59-2,2,2,0,0,1,2.28,1.41A1.76,1.76,0,0,1,145.76,94.29Z" transform="translate(-121.15 -68.84)"/></svg>