<svg xmlns="http://www.w3.org/2000/svg" viewBox="0 0 1610 1999" width="1610" height="1999">
	<defs>
		<clipPath clipPathUnits="userSpaceOnUse" id="cp1">
			<path d="M-1026 -77L2814 -77L2814 2083L-1026 2083Z" />
		</clipPath>
	</defs>
	<style>
		tspan { white-space:pre }
		.shp0 { fill: none;stroke: #000000;stroke-width: 30 } 
	</style>
	<g id="Page 1" clip-path="url(#cp1)">
		<path id="Path 1" class="shp0" d="M804.8 17.64C804.8 17.64 28.11 442.15 15.15 1386.37C15.15 1386.37 110.78 1468.29 454.41 1547.27C454.41 1547.27 383.51 1015.73 805.77 699.8C805.77 699.8 1233.49 1017.6 1157.22 1543.51C1157.22 1543.51 1381.4 1502.49 1594.24 1378C1589.49 727.11 1152.37 206.11 804.8 17.64ZM804.76 875.75C804.76 875.75 287.66 1379.08 804.76 1977.23C804.76 1977.23 1323.17 1477.25 804.76 875.75Z" />
	</g>
</svg>