<svg xmlns="http://www.w3.org/2000/svg" viewBox="0 0 1641 2038" width="1641" height="2038">
	<defs>
		<clipPath clipPathUnits="userSpaceOnUse" id="cp1">
			<path d="M-1010 -60L2830 -60L2830 2100L-1010 2100Z" />
		</clipPath>
	</defs>
	<style>
		tspan { white-space:pre }
		.shp0 { fill: none;stroke: #000000;stroke-width: 60 } 
	</style>
	<g id="Page 1" clip-path="url(#cp1)">
		<path id="Path 1" class="shp0" d="M820.8 34.64C820.8 34.64 44.11 459.15 31.15 1403.37C31.15 1403.37 126.78 1485.29 470.41 1564.27C470.41 1564.27 399.51 1032.73 821.77 716.8C821.77 716.8 1249.49 1034.6 1173.22 1560.51C1173.22 1560.51 1397.4 1519.49 1610.24 1395C1605.49 744.11 1168.37 223.11 820.8 34.64ZM820.76 892.75C820.76 892.75 303.66 1396.08 820.76 1994.23C820.76 1994.23 1339.17 1494.25 820.76 892.75Z" />
	</g>
</svg>