<svg xmlns="http://www.w3.org/2000/svg" viewBox="0 0 3320 3771" width="3320" height="3771">
	<defs>
		<clipPath clipPathUnits="userSpaceOnUse" id="cp1">
			<path d="M-295 -173L3705 -173L3705 3827L-295 3827Z" />
		</clipPath>
	</defs>
	<style>
		tspan { white-space:pre }
		.shp0 { fill: none;stroke: #3e3e3e;stroke-width: 30 } 
	</style>
	<g id="Page 1" clip-path="url(#cp1)">
		<path id="Path 1" class="shp0" d="M3304.72 1660.26C3304.72 2568.55 2568.42 3304.85 1660.13 3304.85C751.85 3304.85 15.55 2568.55 15.55 1660.26C15.55 751.95 751.85 15.65 1660.13 15.65C2568.42 15.65 3304.72 751.95 3304.72 1660.26ZM3165.49 3385.32C3165.49 3589.8 2999.74 3755.55 2795.26 3755.55C2590.78 3755.55 2425.03 3589.8 2425.03 3385.32C2425.03 3180.84 2590.78 3015.12 2795.26 3015.12C2999.74 3015.12 3165.49 3180.84 3165.49 3385.32Z" />
	</g>
</svg>