<svg xmlns="http://www.w3.org/2000/svg" viewBox="0 0 711 836" width="711" height="836">
	<defs>
		<clipPath clipPathUnits="userSpaceOnUse" id="cp1">
			<path d="M-192 -77L808 -77L808 923L-192 923Z" />
		</clipPath>
	</defs>
	<style>
		tspan { white-space:pre }
		.shp0 { fill: none;stroke: #3e3e3e;stroke-width: 40 } 
		.shp1 { fill: none;stroke: #3e3e3e;stroke-width: 36 } 
	</style>
	<g id="Page 1" clip-path="url(#cp1)">
		<path id="Path 1" class="shp0" d="M609.98 314.76C609.98 477.48 478.06 609.4 315.33 609.4C152.61 609.4 20.69 477.48 20.69 314.76C20.69 152.03 152.61 20.11 315.33 20.11C478.06 20.11 609.98 152.03 609.98 314.76Z" />
		<path id="Path 2" class="shp1" d="M692.69 708.63C692.69 769.03 643.73 817.99 583.33 817.99C522.94 817.99 473.98 769.03 473.98 708.63C473.98 648.24 522.94 599.28 583.33 599.28C643.73 599.28 692.69 648.24 692.69 708.63Z" />
	</g>
</svg>