<?xml version="1.0" encoding="iso-8859-1"?>
<!-- Generator: Adobe Illustrator 19.0.0, SVG Export Plug-In . SVG Version: 6.00 Build 0)  -->
<svg version="1.1" id="Capa_1" xmlns="http://www.w3.org/2000/svg" xmlns:xlink="http://www.w3.org/1999/xlink" x="0px" y="0px"
	 viewBox="0 0 512 512" style="enable-background:new 0 0 512 512;" xml:space="preserve">
<g>
	<g>
		<path d="M501.333,106.667H10.667C4.779,106.667,0,111.445,0,117.333v320C0,478.507,33.493,512,74.667,512h362.667
			C478.507,512,512,478.507,512,437.333v-320C512,111.445,507.221,106.667,501.333,106.667z M490.667,437.333
			c0,29.419-23.915,53.333-53.333,53.333H74.667c-29.419,0-53.333-23.915-53.333-53.333V128h469.333V437.333z"/>
	</g>
</g>
<g>
	<g>
		<path d="M256,0c-58.816,0-106.667,47.851-106.667,106.667v74.667c0,5.888,4.779,10.667,10.667,10.667s10.667-4.779,10.667-10.667
			v-74.667c0-47.061,38.272-85.333,85.333-85.333s85.333,38.272,85.333,85.333v74.667c0,5.888,4.779,10.667,10.667,10.667
			c5.888,0,10.667-4.779,10.667-10.667v-74.667C362.667,47.851,314.816,0,256,0z"/>
	</g>
</g>
<g>
	<g>
		<path d="M160,170.667c-17.643,0-32,14.357-32,32c0,17.643,14.357,32,32,32s32-14.357,32-32
			C192,185.024,177.643,170.667,160,170.667z M160,213.333c-5.867,0-10.667-4.8-10.667-10.667c0-5.867,4.8-10.667,10.667-10.667
			c5.867,0,10.667,4.8,10.667,10.667C170.667,208.533,165.867,213.333,160,213.333z"/>
	</g>
</g>
<g>
	<g>
		<path d="M352,170.667c-17.643,0-32,14.357-32,32c0,17.643,14.357,32,32,32c17.643,0,32-14.357,32-32
			C384,185.024,369.643,170.667,352,170.667z M352,213.333c-5.867,0-10.667-4.8-10.667-10.667c0-5.867,4.8-10.667,10.667-10.667
			c5.867,0,10.667,4.8,10.667,10.667C362.667,208.533,357.867,213.333,352,213.333z"/>
	</g>
</g>
<g>
</g>
<g>
</g>
<g>
</g>
<g>
</g>
<g>
</g>
<g>
</g>
<g>
</g>
<g>
</g>
<g>
</g>
<g>
</g>
<g>
</g>
<g>
</g>
<g>
</g>
<g>
</g>
<g>
</g>
</svg>
