<svg xmlns="http://www.w3.org/2000/svg" viewBox="0 0 2428 3572" width="2428" height="3572">
	<defs>
		<clipPath clipPathUnits="userSpaceOnUse" id="cp1">
			<path d="M-795 -209L3205 -209L3205 3791L-795 3791Z" />
		</clipPath>
	</defs>
	<style>
		tspan { white-space:pre }
		.shp0 { fill: none;stroke: #3e3e3e;stroke-width: 30 } 
	</style>
	<g id="Page 1" clip-path="url(#cp1)">
		<path id="Path 1" class="shp0" d="M2412.15 2358.48C2412.15 3020.27 1875.65 3556.77 1213.85 3556.77C552.05 3556.77 15.56 3020.27 15.56 2358.48C15.56 1696.68 552.05 1160.18 1213.85 1160.18C1875.65 1160.18 2412.15 1696.68 2412.15 2358.48ZM1780.5 582.39C1780.5 895.35 1526.8 1149.05 1213.86 1149.05C900.89 1149.05 647.21 895.35 647.21 582.39C647.21 269.44 900.89 15.74 1213.86 15.74C1526.8 15.74 1780.5 269.44 1780.5 582.39Z" />
	</g>
</svg>