<svg xmlns="http://www.w3.org/2000/svg" viewBox="0 0 630 905" width="630" height="905">
	<defs>
		<clipPath clipPathUnits="userSpaceOnUse" id="cp1">
			<path d="M-217 -52L783 -52L783 948L-217 948Z" />
		</clipPath>
	</defs>
	<style>
		tspan { white-space:pre }
		.shp0 { fill: none;stroke: #3e3e3e;stroke-width: 40 } 
		.shp1 { fill: none;stroke: #3e3e3e;stroke-width: 36 } 
	</style>
	<g id="Page 1" clip-path="url(#cp1)">
		<path id="Path 1" class="shp0" d="M609.98 589.76C609.98 752.48 478.06 884.4 315.33 884.4C152.61 884.4 20.69 752.48 20.69 589.76C20.69 427.03 152.61 295.11 315.33 295.11C478.06 295.11 609.98 427.03 609.98 589.76Z" />
		<path id="Path 2" class="shp1" d="M424.69 127.63C424.69 188.03 375.73 236.99 315.33 236.99C254.94 236.99 205.98 188.03 205.98 127.63C205.98 67.24 254.94 18.28 315.33 18.28C375.73 18.28 424.69 67.24 424.69 127.63Z" />
	</g>
</svg>